<?xml version="1.0" encoding="UTF-8"?>
<svg xmlns="http://www.w3.org/2000/svg" viewBox="0 0 820 820" width="820" height="820">
  <rect width="820" height="820" fill="#ffffff" />
  <circle cx="250" cy="90" r="10" fill="#1f6b3a" />
  <circle cx="270" cy="90" r="10" fill="#1f6b3a" />
  <circle cx="290" cy="90" r="10" fill="#1f6b3a" />
  <circle cx="330" cy="90" r="10" fill="#1f6b3a" />
  <circle cx="370" cy="90" r="10" fill="#1f6b3a" />
  <circle cx="450" cy="90" r="10" fill="#1f6b3a" />
  <circle cx="470" cy="90" r="10" fill="#1f6b3a" />
  <circle cx="510" cy="90" r="10" fill="#1f6b3a" />
  <circle cx="550" cy="90" r="10" fill="#1f6b3a" />
  <circle cx="570" cy="90" r="10" fill="#1f6b3a" />
  <circle cx="250" cy="110" r="10" fill="#1f6b3a" />
  <circle cx="270" cy="110" r="10" fill="#1f6b3a" />
  <circle cx="310" cy="110" r="10" fill="#1f6b3a" />
  <circle cx="350" cy="110" r="10" fill="#1f6b3a" />
  <circle cx="390" cy="110" r="10" fill="#1f6b3a" />
  <circle cx="410" cy="110" r="10" fill="#1f6b3a" />
  <circle cx="430" cy="110" r="10" fill="#1f6b3a" />
  <circle cx="470" cy="110" r="10" fill="#1f6b3a" />
  <circle cx="510" cy="110" r="10" fill="#1f6b3a" />
  <circle cx="530" cy="110" r="10" fill="#1f6b3a" />
  <circle cx="570" cy="110" r="10" fill="#1f6b3a" />
  <circle cx="250" cy="130" r="10" fill="#1f6b3a" />
  <circle cx="330" cy="130" r="10" fill="#1f6b3a" />
  <circle cx="370" cy="130" r="10" fill="#1f6b3a" />
  <circle cx="490" cy="130" r="10" fill="#1f6b3a" />
  <circle cx="510" cy="130" r="10" fill="#1f6b3a" />
  <circle cx="530" cy="130" r="10" fill="#1f6b3a" />
  <circle cx="550" cy="130" r="10" fill="#1f6b3a" />
  <circle cx="570" cy="130" r="10" fill="#1f6b3a" />
  <circle cx="270" cy="150" r="10" fill="#1f6b3a" />
  <circle cx="290" cy="150" r="10" fill="#1f6b3a" />
  <circle cx="370" cy="150" r="10" fill="#1f6b3a" />
  <circle cx="410" cy="150" r="10" fill="#1f6b3a" />
  <circle cx="430" cy="150" r="10" fill="#1f6b3a" />
  <circle cx="470" cy="150" r="10" fill="#1f6b3a" />
  <circle cx="530" cy="150" r="10" fill="#1f6b3a" />
  <circle cx="550" cy="150" r="10" fill="#1f6b3a" />
  <circle cx="350" cy="170" r="10" fill="#1f6b3a" />
  <circle cx="370" cy="170" r="10" fill="#1f6b3a" />
  <circle cx="410" cy="170" r="10" fill="#1f6b3a" />
  <circle cx="450" cy="170" r="10" fill="#1f6b3a" />
  <circle cx="490" cy="170" r="10" fill="#1f6b3a" />
  <circle cx="550" cy="170" r="10" fill="#1f6b3a" />
  <circle cx="250" cy="190" r="10" fill="#1f6b3a" />
  <circle cx="290" cy="190" r="10" fill="#1f6b3a" />
  <circle cx="330" cy="190" r="10" fill="#1f6b3a" />
  <circle cx="370" cy="190" r="10" fill="#1f6b3a" />
  <circle cx="410" cy="190" r="10" fill="#1f6b3a" />
  <circle cx="430" cy="190" r="10" fill="#1f6b3a" />
  <circle cx="450" cy="190" r="10" fill="#1f6b3a" />
  <circle cx="470" cy="190" r="10" fill="#1f6b3a" />
  <circle cx="530" cy="190" r="10" fill="#1f6b3a" />
  <circle cx="250" cy="210" r="10" fill="#1f6b3a" />
  <circle cx="290" cy="210" r="10" fill="#1f6b3a" />
  <circle cx="330" cy="210" r="10" fill="#1f6b3a" />
  <circle cx="370" cy="210" r="10" fill="#1f6b3a" />
  <circle cx="410" cy="210" r="10" fill="#1f6b3a" />
  <circle cx="450" cy="210" r="10" fill="#1f6b3a" />
  <circle cx="490" cy="210" r="10" fill="#1f6b3a" />
  <circle cx="530" cy="210" r="10" fill="#1f6b3a" />
  <circle cx="570" cy="210" r="10" fill="#1f6b3a" />
  <circle cx="250" cy="230" r="10" fill="#1f6b3a" />
  <circle cx="270" cy="230" r="10" fill="#1f6b3a" />
  <circle cx="330" cy="230" r="10" fill="#1f6b3a" />
  <circle cx="350" cy="230" r="10" fill="#1f6b3a" />
  <circle cx="430" cy="230" r="10" fill="#1f6b3a" />
  <circle cx="450" cy="230" r="10" fill="#1f6b3a" />
  <circle cx="470" cy="230" r="10" fill="#1f6b3a" />
  <circle cx="510" cy="230" r="10" fill="#1f6b3a" />
  <circle cx="570" cy="230" r="10" fill="#1f6b3a" />
  <circle cx="130" cy="250" r="10" fill="#1f6b3a" />
  <circle cx="150" cy="250" r="10" fill="#1f6b3a" />
  <circle cx="170" cy="250" r="10" fill="#1f6b3a" />
  <circle cx="210" cy="250" r="10" fill="#1f6b3a" />
  <circle cx="250" cy="250" r="10" fill="#1f6b3a" />
  <circle cx="270" cy="250" r="10" fill="#1f6b3a" />
  <circle cx="290" cy="250" r="10" fill="#1f6b3a" />
  <circle cx="310" cy="250" r="10" fill="#1f6b3a" />
  <circle cx="330" cy="250" r="10" fill="#1f6b3a" />
  <circle cx="370" cy="250" r="10" fill="#1f6b3a" />
  <circle cx="390" cy="250" r="10" fill="#1f6b3a" />
  <circle cx="410" cy="250" r="10" fill="#1f6b3a" />
  <circle cx="450" cy="250" r="10" fill="#1f6b3a" />
  <circle cx="530" cy="250" r="10" fill="#1f6b3a" />
  <circle cx="570" cy="250" r="10" fill="#1f6b3a" />
  <circle cx="590" cy="250" r="10" fill="#1f6b3a" />
  <circle cx="610" cy="250" r="10" fill="#1f6b3a" />
  <circle cx="630" cy="250" r="10" fill="#1f6b3a" />
  <circle cx="690" cy="250" r="10" fill="#1f6b3a" />
  <circle cx="710" cy="250" r="10" fill="#1f6b3a" />
  <circle cx="730" cy="250" r="10" fill="#1f6b3a" />
  <circle cx="90" cy="270" r="10" fill="#1f6b3a" />
  <circle cx="110" cy="270" r="10" fill="#1f6b3a" />
  <circle cx="150" cy="270" r="10" fill="#1f6b3a" />
  <circle cx="170" cy="270" r="10" fill="#1f6b3a" />
  <circle cx="230" cy="270" r="10" fill="#1f6b3a" />
  <circle cx="250" cy="270" r="10" fill="#1f6b3a" />
  <circle cx="270" cy="270" r="10" fill="#1f6b3a" />
  <circle cx="390" cy="270" r="10" fill="#1f6b3a" />
  <circle cx="430" cy="270" r="10" fill="#1f6b3a" />
  <circle cx="450" cy="270" r="10" fill="#1f6b3a" />
  <circle cx="490" cy="270" r="10" fill="#1f6b3a" />
  <circle cx="510" cy="270" r="10" fill="#1f6b3a" />
  <circle cx="550" cy="270" r="10" fill="#1f6b3a" />
  <circle cx="570" cy="270" r="10" fill="#1f6b3a" />
  <circle cx="590" cy="270" r="10" fill="#1f6b3a" />
  <circle cx="610" cy="270" r="10" fill="#1f6b3a" />
  <circle cx="670" cy="270" r="10" fill="#1f6b3a" />
  <circle cx="690" cy="270" r="10" fill="#1f6b3a" />
  <circle cx="730" cy="270" r="10" fill="#1f6b3a" />
  <circle cx="110" cy="290" r="10" fill="#1f6b3a" />
  <circle cx="130" cy="290" r="10" fill="#1f6b3a" />
  <circle cx="150" cy="290" r="10" fill="#1f6b3a" />
  <circle cx="210" cy="290" r="10" fill="#1f6b3a" />
  <circle cx="290" cy="290" r="10" fill="#1f6b3a" />
  <circle cx="310" cy="290" r="10" fill="#1f6b3a" />
  <circle cx="370" cy="290" r="10" fill="#1f6b3a" />
  <circle cx="410" cy="290" r="10" fill="#1f6b3a" />
  <circle cx="430" cy="290" r="10" fill="#1f6b3a" />
  <circle cx="450" cy="290" r="10" fill="#1f6b3a" />
  <circle cx="470" cy="290" r="10" fill="#1f6b3a" />
  <circle cx="490" cy="290" r="10" fill="#1f6b3a" />
  <circle cx="630" cy="290" r="10" fill="#1f6b3a" />
  <circle cx="670" cy="290" r="10" fill="#1f6b3a" />
  <circle cx="710" cy="290" r="10" fill="#1f6b3a" />
  <circle cx="110" cy="310" r="10" fill="#1f6b3a" />
  <circle cx="170" cy="310" r="10" fill="#1f6b3a" />
  <circle cx="190" cy="310" r="10" fill="#1f6b3a" />
  <circle cx="230" cy="310" r="10" fill="#1f6b3a" />
  <circle cx="270" cy="310" r="10" fill="#1f6b3a" />
  <circle cx="290" cy="310" r="10" fill="#1f6b3a" />
  <circle cx="550" cy="310" r="10" fill="#1f6b3a" />
  <circle cx="570" cy="310" r="10" fill="#1f6b3a" />
  <circle cx="610" cy="310" r="10" fill="#1f6b3a" />
  <circle cx="670" cy="310" r="10" fill="#1f6b3a" />
  <circle cx="690" cy="310" r="10" fill="#1f6b3a" />
  <circle cx="710" cy="310" r="10" fill="#1f6b3a" />
  <circle cx="730" cy="310" r="10" fill="#1f6b3a" />
  <circle cx="110" cy="330" r="10" fill="#1f6b3a" />
  <circle cx="130" cy="330" r="10" fill="#1f6b3a" />
  <circle cx="170" cy="330" r="10" fill="#1f6b3a" />
  <circle cx="190" cy="330" r="10" fill="#1f6b3a" />
  <circle cx="210" cy="330" r="10" fill="#1f6b3a" />
  <circle cx="250" cy="330" r="10" fill="#1f6b3a" />
  <circle cx="570" cy="330" r="10" fill="#1f6b3a" />
  <circle cx="590" cy="330" r="10" fill="#1f6b3a" />
  <circle cx="650" cy="330" r="10" fill="#1f6b3a" />
  <circle cx="90" cy="350" r="10" fill="#1f6b3a" />
  <circle cx="170" cy="350" r="10" fill="#1f6b3a" />
  <circle cx="230" cy="350" r="10" fill="#1f6b3a" />
  <circle cx="270" cy="350" r="10" fill="#1f6b3a" />
  <circle cx="290" cy="350" r="10" fill="#1f6b3a" />
  <circle cx="550" cy="350" r="10" fill="#1f6b3a" />
  <circle cx="610" cy="350" r="10" fill="#1f6b3a" />
  <circle cx="670" cy="350" r="10" fill="#1f6b3a" />
  <circle cx="730" cy="350" r="10" fill="#1f6b3a" />
  <circle cx="90" cy="370" r="10" fill="#1f6b3a" />
  <circle cx="130" cy="370" r="10" fill="#1f6b3a" />
  <circle cx="170" cy="370" r="10" fill="#1f6b3a" />
  <circle cx="210" cy="370" r="10" fill="#1f6b3a" />
  <circle cx="230" cy="370" r="10" fill="#1f6b3a" />
  <circle cx="250" cy="370" r="10" fill="#1f6b3a" />
  <circle cx="270" cy="370" r="10" fill="#1f6b3a" />
  <circle cx="530" cy="370" r="10" fill="#1f6b3a" />
  <circle cx="610" cy="370" r="10" fill="#1f6b3a" />
  <circle cx="630" cy="370" r="10" fill="#1f6b3a" />
  <circle cx="650" cy="370" r="10" fill="#1f6b3a" />
  <circle cx="670" cy="370" r="10" fill="#1f6b3a" />
  <circle cx="690" cy="370" r="10" fill="#1f6b3a" />
  <circle cx="710" cy="370" r="10" fill="#1f6b3a" />
  <circle cx="90" cy="390" r="10" fill="#1f6b3a" />
  <circle cx="110" cy="390" r="10" fill="#1f6b3a" />
  <circle cx="230" cy="390" r="10" fill="#1f6b3a" />
  <circle cx="270" cy="390" r="10" fill="#1f6b3a" />
  <circle cx="290" cy="390" r="10" fill="#1f6b3a" />
  <circle cx="530" cy="390" r="10" fill="#1f6b3a" />
  <circle cx="550" cy="390" r="10" fill="#1f6b3a" />
  <circle cx="570" cy="390" r="10" fill="#1f6b3a" />
  <circle cx="590" cy="390" r="10" fill="#1f6b3a" />
  <circle cx="630" cy="390" r="10" fill="#1f6b3a" />
  <circle cx="690" cy="390" r="10" fill="#1f6b3a" />
  <circle cx="710" cy="390" r="10" fill="#1f6b3a" />
  <circle cx="170" cy="410" r="10" fill="#1f6b3a" />
  <circle cx="190" cy="410" r="10" fill="#1f6b3a" />
  <circle cx="210" cy="410" r="10" fill="#1f6b3a" />
  <circle cx="230" cy="410" r="10" fill="#1f6b3a" />
  <circle cx="290" cy="410" r="10" fill="#1f6b3a" />
  <circle cx="590" cy="410" r="10" fill="#1f6b3a" />
  <circle cx="630" cy="410" r="10" fill="#1f6b3a" />
  <circle cx="650" cy="410" r="10" fill="#1f6b3a" />
  <circle cx="230" cy="430" r="10" fill="#1f6b3a" />
  <circle cx="270" cy="430" r="10" fill="#1f6b3a" />
  <circle cx="550" cy="430" r="10" fill="#1f6b3a" />
  <circle cx="570" cy="430" r="10" fill="#1f6b3a" />
  <circle cx="610" cy="430" r="10" fill="#1f6b3a" />
  <circle cx="730" cy="430" r="10" fill="#1f6b3a" />
  <circle cx="150" cy="450" r="10" fill="#1f6b3a" />
  <circle cx="170" cy="450" r="10" fill="#1f6b3a" />
  <circle cx="190" cy="450" r="10" fill="#1f6b3a" />
  <circle cx="210" cy="450" r="10" fill="#1f6b3a" />
  <circle cx="250" cy="450" r="10" fill="#1f6b3a" />
  <circle cx="270" cy="450" r="10" fill="#1f6b3a" />
  <circle cx="290" cy="450" r="10" fill="#1f6b3a" />
  <circle cx="530" cy="450" r="10" fill="#1f6b3a" />
  <circle cx="650" cy="450" r="10" fill="#1f6b3a" />
  <circle cx="690" cy="450" r="10" fill="#1f6b3a" />
  <circle cx="710" cy="450" r="10" fill="#1f6b3a" />
  <circle cx="130" cy="470" r="10" fill="#1f6b3a" />
  <circle cx="170" cy="470" r="10" fill="#1f6b3a" />
  <circle cx="190" cy="470" r="10" fill="#1f6b3a" />
  <circle cx="270" cy="470" r="10" fill="#1f6b3a" />
  <circle cx="550" cy="470" r="10" fill="#1f6b3a" />
  <circle cx="570" cy="470" r="10" fill="#1f6b3a" />
  <circle cx="610" cy="470" r="10" fill="#1f6b3a" />
  <circle cx="630" cy="470" r="10" fill="#1f6b3a" />
  <circle cx="670" cy="470" r="10" fill="#1f6b3a" />
  <circle cx="690" cy="470" r="10" fill="#1f6b3a" />
  <circle cx="710" cy="470" r="10" fill="#1f6b3a" />
  <circle cx="730" cy="470" r="10" fill="#1f6b3a" />
  <circle cx="90" cy="490" r="10" fill="#1f6b3a" />
  <circle cx="110" cy="490" r="10" fill="#1f6b3a" />
  <circle cx="170" cy="490" r="10" fill="#1f6b3a" />
  <circle cx="190" cy="490" r="10" fill="#1f6b3a" />
  <circle cx="210" cy="490" r="10" fill="#1f6b3a" />
  <circle cx="230" cy="490" r="10" fill="#1f6b3a" />
  <circle cx="250" cy="490" r="10" fill="#1f6b3a" />
  <circle cx="530" cy="490" r="10" fill="#1f6b3a" />
  <circle cx="650" cy="490" r="10" fill="#1f6b3a" />
  <circle cx="670" cy="490" r="10" fill="#1f6b3a" />
  <circle cx="710" cy="490" r="10" fill="#1f6b3a" />
  <circle cx="730" cy="490" r="10" fill="#1f6b3a" />
  <circle cx="90" cy="510" r="10" fill="#1f6b3a" />
  <circle cx="130" cy="510" r="10" fill="#1f6b3a" />
  <circle cx="150" cy="510" r="10" fill="#1f6b3a" />
  <circle cx="190" cy="510" r="10" fill="#1f6b3a" />
  <circle cx="230" cy="510" r="10" fill="#1f6b3a" />
  <circle cx="290" cy="510" r="10" fill="#1f6b3a" />
  <circle cx="550" cy="510" r="10" fill="#1f6b3a" />
  <circle cx="610" cy="510" r="10" fill="#1f6b3a" />
  <circle cx="690" cy="510" r="10" fill="#1f6b3a" />
  <circle cx="730" cy="510" r="10" fill="#1f6b3a" />
  <circle cx="90" cy="530" r="10" fill="#1f6b3a" />
  <circle cx="130" cy="530" r="10" fill="#1f6b3a" />
  <circle cx="190" cy="530" r="10" fill="#1f6b3a" />
  <circle cx="210" cy="530" r="10" fill="#1f6b3a" />
  <circle cx="250" cy="530" r="10" fill="#1f6b3a" />
  <circle cx="350" cy="530" r="10" fill="#1f6b3a" />
  <circle cx="390" cy="530" r="10" fill="#1f6b3a" />
  <circle cx="430" cy="530" r="10" fill="#1f6b3a" />
  <circle cx="450" cy="530" r="10" fill="#1f6b3a" />
  <circle cx="470" cy="530" r="10" fill="#1f6b3a" />
  <circle cx="490" cy="530" r="10" fill="#1f6b3a" />
  <circle cx="630" cy="530" r="10" fill="#1f6b3a" />
  <circle cx="650" cy="530" r="10" fill="#1f6b3a" />
  <circle cx="670" cy="530" r="10" fill="#1f6b3a" />
  <circle cx="690" cy="530" r="10" fill="#1f6b3a" />
  <circle cx="710" cy="530" r="10" fill="#1f6b3a" />
  <circle cx="90" cy="550" r="10" fill="#1f6b3a" />
  <circle cx="130" cy="550" r="10" fill="#1f6b3a" />
  <circle cx="170" cy="550" r="10" fill="#1f6b3a" />
  <circle cx="230" cy="550" r="10" fill="#1f6b3a" />
  <circle cx="250" cy="550" r="10" fill="#1f6b3a" />
  <circle cx="270" cy="550" r="10" fill="#1f6b3a" />
  <circle cx="290" cy="550" r="10" fill="#1f6b3a" />
  <circle cx="310" cy="550" r="10" fill="#1f6b3a" />
  <circle cx="370" cy="550" r="10" fill="#1f6b3a" />
  <circle cx="430" cy="550" r="10" fill="#1f6b3a" />
  <circle cx="470" cy="550" r="10" fill="#1f6b3a" />
  <circle cx="510" cy="550" r="10" fill="#1f6b3a" />
  <circle cx="530" cy="550" r="10" fill="#1f6b3a" />
  <circle cx="550" cy="550" r="10" fill="#1f6b3a" />
  <circle cx="670" cy="550" r="10" fill="#1f6b3a" />
  <circle cx="690" cy="550" r="10" fill="#1f6b3a" />
  <circle cx="710" cy="550" r="10" fill="#1f6b3a" />
  <circle cx="90" cy="570" r="10" fill="#1f6b3a" />
  <circle cx="150" cy="570" r="10" fill="#1f6b3a" />
  <circle cx="210" cy="570" r="10" fill="#1f6b3a" />
  <circle cx="250" cy="570" r="10" fill="#1f6b3a" />
  <circle cx="290" cy="570" r="10" fill="#1f6b3a" />
  <circle cx="310" cy="570" r="10" fill="#1f6b3a" />
  <circle cx="330" cy="570" r="10" fill="#1f6b3a" />
  <circle cx="370" cy="570" r="10" fill="#1f6b3a" />
  <circle cx="390" cy="570" r="10" fill="#1f6b3a" />
  <circle cx="470" cy="570" r="10" fill="#1f6b3a" />
  <circle cx="530" cy="570" r="10" fill="#1f6b3a" />
  <circle cx="550" cy="570" r="10" fill="#1f6b3a" />
  <circle cx="570" cy="570" r="10" fill="#1f6b3a" />
  <circle cx="590" cy="570" r="10" fill="#1f6b3a" />
  <circle cx="610" cy="570" r="10" fill="#1f6b3a" />
  <circle cx="630" cy="570" r="10" fill="#1f6b3a" />
  <circle cx="650" cy="570" r="10" fill="#1f6b3a" />
  <circle cx="710" cy="570" r="10" fill="#1f6b3a" />
  <circle cx="250" cy="590" r="10" fill="#1f6b3a" />
  <circle cx="270" cy="590" r="10" fill="#1f6b3a" />
  <circle cx="290" cy="590" r="10" fill="#1f6b3a" />
  <circle cx="390" cy="590" r="10" fill="#1f6b3a" />
  <circle cx="410" cy="590" r="10" fill="#1f6b3a" />
  <circle cx="430" cy="590" r="10" fill="#1f6b3a" />
  <circle cx="450" cy="590" r="10" fill="#1f6b3a" />
  <circle cx="470" cy="590" r="10" fill="#1f6b3a" />
  <circle cx="490" cy="590" r="10" fill="#1f6b3a" />
  <circle cx="550" cy="590" r="10" fill="#1f6b3a" />
  <circle cx="570" cy="590" r="10" fill="#1f6b3a" />
  <circle cx="650" cy="590" r="10" fill="#1f6b3a" />
  <circle cx="670" cy="590" r="10" fill="#1f6b3a" />
  <circle cx="710" cy="590" r="10" fill="#1f6b3a" />
  <circle cx="730" cy="590" r="10" fill="#1f6b3a" />
  <circle cx="350" cy="610" r="10" fill="#1f6b3a" />
  <circle cx="410" cy="610" r="10" fill="#1f6b3a" />
  <circle cx="430" cy="610" r="10" fill="#1f6b3a" />
  <circle cx="450" cy="610" r="10" fill="#1f6b3a" />
  <circle cx="470" cy="610" r="10" fill="#1f6b3a" />
  <circle cx="530" cy="610" r="10" fill="#1f6b3a" />
  <circle cx="550" cy="610" r="10" fill="#1f6b3a" />
  <circle cx="570" cy="610" r="10" fill="#1f6b3a" />
  <circle cx="610" cy="610" r="10" fill="#1f6b3a" />
  <circle cx="650" cy="610" r="10" fill="#1f6b3a" />
  <circle cx="670" cy="610" r="10" fill="#1f6b3a" />
  <circle cx="710" cy="610" r="10" fill="#1f6b3a" />
  <circle cx="270" cy="630" r="10" fill="#1f6b3a" />
  <circle cx="330" cy="630" r="10" fill="#1f6b3a" />
  <circle cx="410" cy="630" r="10" fill="#1f6b3a" />
  <circle cx="470" cy="630" r="10" fill="#1f6b3a" />
  <circle cx="490" cy="630" r="10" fill="#1f6b3a" />
  <circle cx="550" cy="630" r="10" fill="#1f6b3a" />
  <circle cx="570" cy="630" r="10" fill="#1f6b3a" />
  <circle cx="650" cy="630" r="10" fill="#1f6b3a" />
  <circle cx="670" cy="630" r="10" fill="#1f6b3a" />
  <circle cx="690" cy="630" r="10" fill="#1f6b3a" />
  <circle cx="710" cy="630" r="10" fill="#1f6b3a" />
  <circle cx="730" cy="630" r="10" fill="#1f6b3a" />
  <circle cx="250" cy="650" r="10" fill="#1f6b3a" />
  <circle cx="290" cy="650" r="10" fill="#1f6b3a" />
  <circle cx="370" cy="650" r="10" fill="#1f6b3a" />
  <circle cx="390" cy="650" r="10" fill="#1f6b3a" />
  <circle cx="410" cy="650" r="10" fill="#1f6b3a" />
  <circle cx="430" cy="650" r="10" fill="#1f6b3a" />
  <circle cx="450" cy="650" r="10" fill="#1f6b3a" />
  <circle cx="470" cy="650" r="10" fill="#1f6b3a" />
  <circle cx="490" cy="650" r="10" fill="#1f6b3a" />
  <circle cx="510" cy="650" r="10" fill="#1f6b3a" />
  <circle cx="530" cy="650" r="10" fill="#1f6b3a" />
  <circle cx="570" cy="650" r="10" fill="#1f6b3a" />
  <circle cx="590" cy="650" r="10" fill="#1f6b3a" />
  <circle cx="610" cy="650" r="10" fill="#1f6b3a" />
  <circle cx="630" cy="650" r="10" fill="#1f6b3a" />
  <circle cx="650" cy="650" r="10" fill="#1f6b3a" />
  <circle cx="710" cy="650" r="10" fill="#1f6b3a" />
  <circle cx="730" cy="650" r="10" fill="#1f6b3a" />
  <circle cx="250" cy="670" r="10" fill="#1f6b3a" />
  <circle cx="270" cy="670" r="10" fill="#1f6b3a" />
  <circle cx="310" cy="670" r="10" fill="#1f6b3a" />
  <circle cx="330" cy="670" r="10" fill="#1f6b3a" />
  <circle cx="390" cy="670" r="10" fill="#1f6b3a" />
  <circle cx="450" cy="670" r="10" fill="#1f6b3a" />
  <circle cx="510" cy="670" r="10" fill="#1f6b3a" />
  <circle cx="550" cy="670" r="10" fill="#1f6b3a" />
  <circle cx="590" cy="670" r="10" fill="#1f6b3a" />
  <circle cx="650" cy="670" r="10" fill="#1f6b3a" />
  <circle cx="670" cy="670" r="10" fill="#1f6b3a" />
  <circle cx="730" cy="670" r="10" fill="#1f6b3a" />
  <circle cx="250" cy="690" r="10" fill="#1f6b3a" />
  <circle cx="270" cy="690" r="10" fill="#1f6b3a" />
  <circle cx="290" cy="690" r="10" fill="#1f6b3a" />
  <circle cx="310" cy="690" r="10" fill="#1f6b3a" />
  <circle cx="330" cy="690" r="10" fill="#1f6b3a" />
  <circle cx="370" cy="690" r="10" fill="#1f6b3a" />
  <circle cx="410" cy="690" r="10" fill="#1f6b3a" />
  <circle cx="450" cy="690" r="10" fill="#1f6b3a" />
  <circle cx="490" cy="690" r="10" fill="#1f6b3a" />
  <circle cx="510" cy="690" r="10" fill="#1f6b3a" />
  <circle cx="530" cy="690" r="10" fill="#1f6b3a" />
  <circle cx="550" cy="690" r="10" fill="#1f6b3a" />
  <circle cx="590" cy="690" r="10" fill="#1f6b3a" />
  <circle cx="610" cy="690" r="10" fill="#1f6b3a" />
  <circle cx="270" cy="710" r="10" fill="#1f6b3a" />
  <circle cx="290" cy="710" r="10" fill="#1f6b3a" />
  <circle cx="330" cy="710" r="10" fill="#1f6b3a" />
  <circle cx="350" cy="710" r="10" fill="#1f6b3a" />
  <circle cx="370" cy="710" r="10" fill="#1f6b3a" />
  <circle cx="410" cy="710" r="10" fill="#1f6b3a" />
  <circle cx="430" cy="710" r="10" fill="#1f6b3a" />
  <circle cx="450" cy="710" r="10" fill="#1f6b3a" />
  <circle cx="470" cy="710" r="10" fill="#1f6b3a" />
  <circle cx="490" cy="710" r="10" fill="#1f6b3a" />
  <circle cx="550" cy="710" r="10" fill="#1f6b3a" />
  <circle cx="630" cy="710" r="10" fill="#1f6b3a" />
  <circle cx="670" cy="710" r="10" fill="#1f6b3a" />
  <circle cx="690" cy="710" r="10" fill="#1f6b3a" />
  <circle cx="270" cy="730" r="10" fill="#1f6b3a" />
  <circle cx="370" cy="730" r="10" fill="#1f6b3a" />
  <circle cx="390" cy="730" r="10" fill="#1f6b3a" />
  <circle cx="430" cy="730" r="10" fill="#1f6b3a" />
  <circle cx="470" cy="730" r="10" fill="#1f6b3a" />
  <circle cx="490" cy="730" r="10" fill="#1f6b3a" />
  <circle cx="550" cy="730" r="10" fill="#1f6b3a" />
  <circle cx="570" cy="730" r="10" fill="#1f6b3a" />
  <circle cx="590" cy="730" r="10" fill="#1f6b3a" />
  <circle cx="710" cy="730" r="10" fill="#1f6b3a" />
  
  <rect x="80" y="80" width="140" height="140" rx="35" ry="35" fill="#1f6b3a" />
  <rect x="100" y="100" width="100" height="100" rx="25" ry="25" fill="#ffffff" />
  <rect x="120" y="120" width="60" height="60" rx="15" ry="15" fill="#1f6b3a" />
  <rect x="600" y="80" width="140" height="140" rx="35" ry="35" fill="#1f6b3a" />
  <rect x="620" y="100" width="100" height="100" rx="25" ry="25" fill="#ffffff" />
  <rect x="640" y="120" width="60" height="60" rx="15" ry="15" fill="#1f6b3a" />
  <rect x="80" y="600" width="140" height="140" rx="35" ry="35" fill="#1f6b3a" />
  <rect x="100" y="620" width="100" height="100" rx="25" ry="25" fill="#ffffff" />
  <rect x="120" y="640" width="60" height="60" rx="15" ry="15" fill="#1f6b3a" />
  <rect x="304.4" y="304.4" width="211.2" height="211.2" rx="40" ry="40" fill="#ffffff" />
  <g transform="translate(344.4 344.4) scale(0.5857142857142856)">
    <path d="M 97.500 15.896 C 75.705 21.340, 59.598 36.259, 52.416 57.655 C 46.329 75.787, 49.400 95.958, 60.656 111.790 C 62.495 114.377, 64 116.813, 64 117.203 C 64 117.593, 60.737 118.045, 56.750 118.206 L 49.500 118.500 49.787 123 C 50.287 130.835, 52.085 137.250, 56.215 145.923 C 63.803 161.863, 81.390 175.812, 98.025 179.085 L 104 180.260 104 194.630 C 104 202.534, 104.338 209.047, 104.750 209.105 C 107.890 209.545, 118.241 209.469, 118.998 209.001 C 119.517 208.681, 120.067 202.169, 120.220 194.531 L 120.500 180.644 127.797 178.852 C 149.805 173.446, 167.904 155.496, 173.485 133.540 C 175.269 126.521, 175.464 112.293, 173.879 104.799 C 172.416 97.885, 167.947 88.058, 163.526 82.036 C 161.587 79.394, 160 76.955, 160 76.616 C 160 76.277, 163.600 76, 168 76 C 175.635 76, 175.999 75.897, 175.983 73.750 C 175.939 68.112, 172.674 56.763, 168.862 49 C 156.161 23.132, 125.490 8.904, 97.500 15.896 M 101.698 31.096 C 89.701 33.919, 76.750 44.238, 70.661 55.826 C 61.477 73.303, 64.656 93.830, 78.722 107.872 C 84.492 113.633, 94.384 119.380, 100.608 120.589 C 103.273 121.107, 103.806 120.858, 104.344 118.847 C 104.690 117.556, 104.979 102.888, 104.986 86.250 L 105 56 111.542 56 C 126.977 56, 142.857 61.772, 153.487 71.246 L 159.269 76.400 158.838 70.432 C 157.589 53.171, 140.630 34.969, 122.201 31.110 C 116.048 29.821, 107.139 29.815, 101.698 31.096 M 120.643 84.144 C 120.278 90.390, 119.994 110.961, 120.013 129.857 L 120.046 164.214 123.773 163.516 C 133.905 161.620, 147.955 151.011, 153.270 141.244 C 160.808 127.396, 160.787 109.668, 153.217 95.601 C 147.712 85.372, 134.224 74.884, 124.555 73.315 L 121.306 72.788 120.643 84.144 M 65.626 119.797 C 64.420 121.747, 67.121 132.825, 70.449 139.575 C 76.109 151.057, 88.960 161.247, 100.750 163.601 L 104 164.250 104 151.734 L 104 139.217 97.048 137.647 C 87.540 135.500, 78.718 130.827, 71.907 124.329 C 68.764 121.332, 65.937 119.292, 65.626 119.797" stroke="none" fill="#1f6b3a" fill-rule="evenodd"/>
  </g>
</svg>
