<?xml version="1.0" standalone="no"?>
<svg xmlns="http://www.w3.org/2000/svg" version="1.1" width="784" height="784">
	<!-- Created with https://api.qrserver.com (QR Code API, see goQR.me/api for information) -->
	<title>QR Code</title>
	<desc>https://safrasenegocios.com.br/?utm_source=qr&amp;utm_medium=print&amp;utm_campaign=cartao</desc>
	<rect style="fill:rgb(255, 255, 255);fill-opacity:1" x="0" y="0" width="784" height="784" />
	<g id="elements">
		<path style="fill:rgb(0, 0, 0)" d="M 0,0 l 16,0 0,16 -16,0 z M 16,0 l 16,0 0,16 -16,0 z M 32,0 l 16,0 0,16 -16,0 z M 48,0 l 16,0 0,16 -16,0 z M 64,0 l 16,0 0,16 -16,0 z M 80,0 l 16,0 0,16 -16,0 z M 96,0 l 16,0 0,16 -16,0 z M 128,0 l 16,0 0,16 -16,0 z M 144,0 l 16,0 0,16 -16,0 z M 160,0 l 16,0 0,16 -16,0 z M 192,0 l 16,0 0,16 -16,0 z M 240,0 l 16,0 0,16 -16,0 z M 272,0 l 16,0 0,16 -16,0 z M 336,0 l 16,0 0,16 -16,0 z M 368,0 l 16,0 0,16 -16,0 z M 400,0 l 16,0 0,16 -16,0 z M 416,0 l 16,0 0,16 -16,0 z M 432,0 l 16,0 0,16 -16,0 z M 496,0 l 16,0 0,16 -16,0 z M 640,0 l 16,0 0,16 -16,0 z M 672,0 l 16,0 0,16 -16,0 z M 688,0 l 16,0 0,16 -16,0 z M 704,0 l 16,0 0,16 -16,0 z M 720,0 l 16,0 0,16 -16,0 z M 736,0 l 16,0 0,16 -16,0 z M 752,0 l 16,0 0,16 -16,0 z M 768,0 l 16,0 0,16 -16,0 z M 0,16 l 16,0 0,16 -16,0 z M 96,16 l 16,0 0,16 -16,0 z M 128,16 l 16,0 0,16 -16,0 z M 144,16 l 16,0 0,16 -16,0 z M 192,16 l 16,0 0,16 -16,0 z M 208,16 l 16,0 0,16 -16,0 z M 240,16 l 16,0 0,16 -16,0 z M 256,16 l 16,0 0,16 -16,0 z M 288,16 l 16,0 0,16 -16,0 z M 336,16 l 16,0 0,16 -16,0 z M 384,16 l 16,0 0,16 -16,0 z M 416,16 l 16,0 0,16 -16,0 z M 448,16 l 16,0 0,16 -16,0 z M 464,16 l 16,0 0,16 -16,0 z M 480,16 l 16,0 0,16 -16,0 z M 512,16 l 16,0 0,16 -16,0 z M 528,16 l 16,0 0,16 -16,0 z M 544,16 l 16,0 0,16 -16,0 z M 560,16 l 16,0 0,16 -16,0 z M 608,16 l 16,0 0,16 -16,0 z M 624,16 l 16,0 0,16 -16,0 z M 640,16 l 16,0 0,16 -16,0 z M 672,16 l 16,0 0,16 -16,0 z M 768,16 l 16,0 0,16 -16,0 z M 0,32 l 16,0 0,16 -16,0 z M 32,32 l 16,0 0,16 -16,0 z M 48,32 l 16,0 0,16 -16,0 z M 64,32 l 16,0 0,16 -16,0 z M 96,32 l 16,0 0,16 -16,0 z M 128,32 l 16,0 0,16 -16,0 z M 160,32 l 16,0 0,16 -16,0 z M 176,32 l 16,0 0,16 -16,0 z M 208,32 l 16,0 0,16 -16,0 z M 256,32 l 16,0 0,16 -16,0 z M 288,32 l 16,0 0,16 -16,0 z M 320,32 l 16,0 0,16 -16,0 z M 336,32 l 16,0 0,16 -16,0 z M 368,32 l 16,0 0,16 -16,0 z M 384,32 l 16,0 0,16 -16,0 z M 416,32 l 16,0 0,16 -16,0 z M 432,32 l 16,0 0,16 -16,0 z M 448,32 l 16,0 0,16 -16,0 z M 496,32 l 16,0 0,16 -16,0 z M 544,32 l 16,0 0,16 -16,0 z M 624,32 l 16,0 0,16 -16,0 z M 640,32 l 16,0 0,16 -16,0 z M 672,32 l 16,0 0,16 -16,0 z M 704,32 l 16,0 0,16 -16,0 z M 720,32 l 16,0 0,16 -16,0 z M 736,32 l 16,0 0,16 -16,0 z M 768,32 l 16,0 0,16 -16,0 z M 0,48 l 16,0 0,16 -16,0 z M 32,48 l 16,0 0,16 -16,0 z M 48,48 l 16,0 0,16 -16,0 z M 64,48 l 16,0 0,16 -16,0 z M 96,48 l 16,0 0,16 -16,0 z M 176,48 l 16,0 0,16 -16,0 z M 192,48 l 16,0 0,16 -16,0 z M 208,48 l 16,0 0,16 -16,0 z M 224,48 l 16,0 0,16 -16,0 z M 288,48 l 16,0 0,16 -16,0 z M 320,48 l 16,0 0,16 -16,0 z M 368,48 l 16,0 0,16 -16,0 z M 384,48 l 16,0 0,16 -16,0 z M 400,48 l 16,0 0,16 -16,0 z M 416,48 l 16,0 0,16 -16,0 z M 432,48 l 16,0 0,16 -16,0 z M 448,48 l 16,0 0,16 -16,0 z M 464,48 l 16,0 0,16 -16,0 z M 480,48 l 16,0 0,16 -16,0 z M 496,48 l 16,0 0,16 -16,0 z M 512,48 l 16,0 0,16 -16,0 z M 544,48 l 16,0 0,16 -16,0 z M 560,48 l 16,0 0,16 -16,0 z M 576,48 l 16,0 0,16 -16,0 z M 592,48 l 16,0 0,16 -16,0 z M 624,48 l 16,0 0,16 -16,0 z M 672,48 l 16,0 0,16 -16,0 z M 704,48 l 16,0 0,16 -16,0 z M 720,48 l 16,0 0,16 -16,0 z M 736,48 l 16,0 0,16 -16,0 z M 768,48 l 16,0 0,16 -16,0 z M 0,64 l 16,0 0,16 -16,0 z M 32,64 l 16,0 0,16 -16,0 z M 48,64 l 16,0 0,16 -16,0 z M 64,64 l 16,0 0,16 -16,0 z M 96,64 l 16,0 0,16 -16,0 z M 176,64 l 16,0 0,16 -16,0 z M 192,64 l 16,0 0,16 -16,0 z M 224,64 l 16,0 0,16 -16,0 z M 240,64 l 16,0 0,16 -16,0 z M 352,64 l 16,0 0,16 -16,0 z M 368,64 l 16,0 0,16 -16,0 z M 384,64 l 16,0 0,16 -16,0 z M 400,64 l 16,0 0,16 -16,0 z M 416,64 l 16,0 0,16 -16,0 z M 448,64 l 16,0 0,16 -16,0 z M 464,64 l 16,0 0,16 -16,0 z M 480,64 l 16,0 0,16 -16,0 z M 560,64 l 16,0 0,16 -16,0 z M 576,64 l 16,0 0,16 -16,0 z M 592,64 l 16,0 0,16 -16,0 z M 672,64 l 16,0 0,16 -16,0 z M 704,64 l 16,0 0,16 -16,0 z M 720,64 l 16,0 0,16 -16,0 z M 736,64 l 16,0 0,16 -16,0 z M 768,64 l 16,0 0,16 -16,0 z M 0,80 l 16,0 0,16 -16,0 z M 96,80 l 16,0 0,16 -16,0 z M 128,80 l 16,0 0,16 -16,0 z M 160,80 l 16,0 0,16 -16,0 z M 176,80 l 16,0 0,16 -16,0 z M 192,80 l 16,0 0,16 -16,0 z M 208,80 l 16,0 0,16 -16,0 z M 240,80 l 16,0 0,16 -16,0 z M 272,80 l 16,0 0,16 -16,0 z M 304,80 l 16,0 0,16 -16,0 z M 336,80 l 16,0 0,16 -16,0 z M 352,80 l 16,0 0,16 -16,0 z M 416,80 l 16,0 0,16 -16,0 z M 448,80 l 16,0 0,16 -16,0 z M 544,80 l 16,0 0,16 -16,0 z M 576,80 l 16,0 0,16 -16,0 z M 608,80 l 16,0 0,16 -16,0 z M 672,80 l 16,0 0,16 -16,0 z M 768,80 l 16,0 0,16 -16,0 z M 0,96 l 16,0 0,16 -16,0 z M 16,96 l 16,0 0,16 -16,0 z M 32,96 l 16,0 0,16 -16,0 z M 48,96 l 16,0 0,16 -16,0 z M 64,96 l 16,0 0,16 -16,0 z M 80,96 l 16,0 0,16 -16,0 z M 96,96 l 16,0 0,16 -16,0 z M 128,96 l 16,0 0,16 -16,0 z M 160,96 l 16,0 0,16 -16,0 z M 192,96 l 16,0 0,16 -16,0 z M 224,96 l 16,0 0,16 -16,0 z M 256,96 l 16,0 0,16 -16,0 z M 288,96 l 16,0 0,16 -16,0 z M 320,96 l 16,0 0,16 -16,0 z M 352,96 l 16,0 0,16 -16,0 z M 384,96 l 16,0 0,16 -16,0 z M 416,96 l 16,0 0,16 -16,0 z M 448,96 l 16,0 0,16 -16,0 z M 480,96 l 16,0 0,16 -16,0 z M 512,96 l 16,0 0,16 -16,0 z M 544,96 l 16,0 0,16 -16,0 z M 576,96 l 16,0 0,16 -16,0 z M 608,96 l 16,0 0,16 -16,0 z M 640,96 l 16,0 0,16 -16,0 z M 672,96 l 16,0 0,16 -16,0 z M 688,96 l 16,0 0,16 -16,0 z M 704,96 l 16,0 0,16 -16,0 z M 720,96 l 16,0 0,16 -16,0 z M 736,96 l 16,0 0,16 -16,0 z M 752,96 l 16,0 0,16 -16,0 z M 768,96 l 16,0 0,16 -16,0 z M 128,112 l 16,0 0,16 -16,0 z M 144,112 l 16,0 0,16 -16,0 z M 160,112 l 16,0 0,16 -16,0 z M 224,112 l 16,0 0,16 -16,0 z M 240,112 l 16,0 0,16 -16,0 z M 288,112 l 16,0 0,16 -16,0 z M 320,112 l 16,0 0,16 -16,0 z M 336,112 l 16,0 0,16 -16,0 z M 352,112 l 16,0 0,16 -16,0 z M 416,112 l 16,0 0,16 -16,0 z M 432,112 l 16,0 0,16 -16,0 z M 496,112 l 16,0 0,16 -16,0 z M 592,112 l 16,0 0,16 -16,0 z M 32,128 l 16,0 0,16 -16,0 z M 48,128 l 16,0 0,16 -16,0 z M 64,128 l 16,0 0,16 -16,0 z M 96,128 l 16,0 0,16 -16,0 z M 128,128 l 16,0 0,16 -16,0 z M 176,128 l 16,0 0,16 -16,0 z M 192,128 l 16,0 0,16 -16,0 z M 240,128 l 16,0 0,16 -16,0 z M 304,128 l 16,0 0,16 -16,0 z M 336,128 l 16,0 0,16 -16,0 z M 352,128 l 16,0 0,16 -16,0 z M 368,128 l 16,0 0,16 -16,0 z M 384,128 l 16,0 0,16 -16,0 z M 400,128 l 16,0 0,16 -16,0 z M 416,128 l 16,0 0,16 -16,0 z M 432,128 l 16,0 0,16 -16,0 z M 464,128 l 16,0 0,16 -16,0 z M 480,128 l 16,0 0,16 -16,0 z M 496,128 l 16,0 0,16 -16,0 z M 560,128 l 16,0 0,16 -16,0 z M 576,128 l 16,0 0,16 -16,0 z M 624,128 l 16,0 0,16 -16,0 z M 640,128 l 16,0 0,16 -16,0 z M 656,128 l 16,0 0,16 -16,0 z M 672,128 l 16,0 0,16 -16,0 z M 688,128 l 16,0 0,16 -16,0 z M 736,128 l 16,0 0,16 -16,0 z M 752,128 l 16,0 0,16 -16,0 z M 768,128 l 16,0 0,16 -16,0 z M 80,144 l 16,0 0,16 -16,0 z M 144,144 l 16,0 0,16 -16,0 z M 176,144 l 16,0 0,16 -16,0 z M 192,144 l 16,0 0,16 -16,0 z M 224,144 l 16,0 0,16 -16,0 z M 272,144 l 16,0 0,16 -16,0 z M 288,144 l 16,0 0,16 -16,0 z M 304,144 l 16,0 0,16 -16,0 z M 320,144 l 16,0 0,16 -16,0 z M 352,144 l 16,0 0,16 -16,0 z M 368,144 l 16,0 0,16 -16,0 z M 400,144 l 16,0 0,16 -16,0 z M 416,144 l 16,0 0,16 -16,0 z M 432,144 l 16,0 0,16 -16,0 z M 448,144 l 16,0 0,16 -16,0 z M 480,144 l 16,0 0,16 -16,0 z M 576,144 l 16,0 0,16 -16,0 z M 592,144 l 16,0 0,16 -16,0 z M 672,144 l 16,0 0,16 -16,0 z M 704,144 l 16,0 0,16 -16,0 z M 736,144 l 16,0 0,16 -16,0 z M 752,144 l 16,0 0,16 -16,0 z M 0,160 l 16,0 0,16 -16,0 z M 96,160 l 16,0 0,16 -16,0 z M 112,160 l 16,0 0,16 -16,0 z M 144,160 l 16,0 0,16 -16,0 z M 176,160 l 16,0 0,16 -16,0 z M 208,160 l 16,0 0,16 -16,0 z M 224,160 l 16,0 0,16 -16,0 z M 240,160 l 16,0 0,16 -16,0 z M 256,160 l 16,0 0,16 -16,0 z M 272,160 l 16,0 0,16 -16,0 z M 288,160 l 16,0 0,16 -16,0 z M 304,160 l 16,0 0,16 -16,0 z M 320,160 l 16,0 0,16 -16,0 z M 336,160 l 16,0 0,16 -16,0 z M 352,160 l 16,0 0,16 -16,0 z M 384,160 l 16,0 0,16 -16,0 z M 432,160 l 16,0 0,16 -16,0 z M 448,160 l 16,0 0,16 -16,0 z M 464,160 l 16,0 0,16 -16,0 z M 480,160 l 16,0 0,16 -16,0 z M 496,160 l 16,0 0,16 -16,0 z M 512,160 l 16,0 0,16 -16,0 z M 528,160 l 16,0 0,16 -16,0 z M 544,160 l 16,0 0,16 -16,0 z M 560,160 l 16,0 0,16 -16,0 z M 576,160 l 16,0 0,16 -16,0 z M 608,160 l 16,0 0,16 -16,0 z M 640,160 l 16,0 0,16 -16,0 z M 768,160 l 16,0 0,16 -16,0 z M 0,176 l 16,0 0,16 -16,0 z M 16,176 l 16,0 0,16 -16,0 z M 64,176 l 16,0 0,16 -16,0 z M 80,176 l 16,0 0,16 -16,0 z M 112,176 l 16,0 0,16 -16,0 z M 128,176 l 16,0 0,16 -16,0 z M 144,176 l 16,0 0,16 -16,0 z M 192,176 l 16,0 0,16 -16,0 z M 208,176 l 16,0 0,16 -16,0 z M 304,176 l 16,0 0,16 -16,0 z M 320,176 l 16,0 0,16 -16,0 z M 352,176 l 16,0 0,16 -16,0 z M 368,176 l 16,0 0,16 -16,0 z M 448,176 l 16,0 0,16 -16,0 z M 464,176 l 16,0 0,16 -16,0 z M 496,176 l 16,0 0,16 -16,0 z M 544,176 l 16,0 0,16 -16,0 z M 592,176 l 16,0 0,16 -16,0 z M 624,176 l 16,0 0,16 -16,0 z M 672,176 l 16,0 0,16 -16,0 z M 688,176 l 16,0 0,16 -16,0 z M 704,176 l 16,0 0,16 -16,0 z M 720,176 l 16,0 0,16 -16,0 z M 752,176 l 16,0 0,16 -16,0 z M 768,176 l 16,0 0,16 -16,0 z M 48,192 l 16,0 0,16 -16,0 z M 80,192 l 16,0 0,16 -16,0 z M 96,192 l 16,0 0,16 -16,0 z M 128,192 l 16,0 0,16 -16,0 z M 160,192 l 16,0 0,16 -16,0 z M 192,192 l 16,0 0,16 -16,0 z M 208,192 l 16,0 0,16 -16,0 z M 272,192 l 16,0 0,16 -16,0 z M 288,192 l 16,0 0,16 -16,0 z M 320,192 l 16,0 0,16 -16,0 z M 336,192 l 16,0 0,16 -16,0 z M 384,192 l 16,0 0,16 -16,0 z M 416,192 l 16,0 0,16 -16,0 z M 496,192 l 16,0 0,16 -16,0 z M 512,192 l 16,0 0,16 -16,0 z M 560,192 l 16,0 0,16 -16,0 z M 576,192 l 16,0 0,16 -16,0 z M 624,192 l 16,0 0,16 -16,0 z M 640,192 l 16,0 0,16 -16,0 z M 736,192 l 16,0 0,16 -16,0 z M 752,192 l 16,0 0,16 -16,0 z M 768,192 l 16,0 0,16 -16,0 z M 16,208 l 16,0 0,16 -16,0 z M 32,208 l 16,0 0,16 -16,0 z M 80,208 l 16,0 0,16 -16,0 z M 176,208 l 16,0 0,16 -16,0 z M 192,208 l 16,0 0,16 -16,0 z M 208,208 l 16,0 0,16 -16,0 z M 256,208 l 16,0 0,16 -16,0 z M 272,208 l 16,0 0,16 -16,0 z M 288,208 l 16,0 0,16 -16,0 z M 304,208 l 16,0 0,16 -16,0 z M 336,208 l 16,0 0,16 -16,0 z M 368,208 l 16,0 0,16 -16,0 z M 384,208 l 16,0 0,16 -16,0 z M 400,208 l 16,0 0,16 -16,0 z M 432,208 l 16,0 0,16 -16,0 z M 464,208 l 16,0 0,16 -16,0 z M 480,208 l 16,0 0,16 -16,0 z M 496,208 l 16,0 0,16 -16,0 z M 512,208 l 16,0 0,16 -16,0 z M 576,208 l 16,0 0,16 -16,0 z M 624,208 l 16,0 0,16 -16,0 z M 656,208 l 16,0 0,16 -16,0 z M 672,208 l 16,0 0,16 -16,0 z M 688,208 l 16,0 0,16 -16,0 z M 704,208 l 16,0 0,16 -16,0 z M 720,208 l 16,0 0,16 -16,0 z M 0,224 l 16,0 0,16 -16,0 z M 32,224 l 16,0 0,16 -16,0 z M 64,224 l 16,0 0,16 -16,0 z M 80,224 l 16,0 0,16 -16,0 z M 96,224 l 16,0 0,16 -16,0 z M 144,224 l 16,0 0,16 -16,0 z M 160,224 l 16,0 0,16 -16,0 z M 192,224 l 16,0 0,16 -16,0 z M 208,224 l 16,0 0,16 -16,0 z M 224,224 l 16,0 0,16 -16,0 z M 240,224 l 16,0 0,16 -16,0 z M 256,224 l 16,0 0,16 -16,0 z M 272,224 l 16,0 0,16 -16,0 z M 304,224 l 16,0 0,16 -16,0 z M 336,224 l 16,0 0,16 -16,0 z M 352,224 l 16,0 0,16 -16,0 z M 368,224 l 16,0 0,16 -16,0 z M 384,224 l 16,0 0,16 -16,0 z M 416,224 l 16,0 0,16 -16,0 z M 432,224 l 16,0 0,16 -16,0 z M 448,224 l 16,0 0,16 -16,0 z M 560,224 l 16,0 0,16 -16,0 z M 576,224 l 16,0 0,16 -16,0 z M 608,224 l 16,0 0,16 -16,0 z M 624,224 l 16,0 0,16 -16,0 z M 640,224 l 16,0 0,16 -16,0 z M 688,224 l 16,0 0,16 -16,0 z M 704,224 l 16,0 0,16 -16,0 z M 720,224 l 16,0 0,16 -16,0 z M 752,224 l 16,0 0,16 -16,0 z M 768,224 l 16,0 0,16 -16,0 z M 16,240 l 16,0 0,16 -16,0 z M 32,240 l 16,0 0,16 -16,0 z M 48,240 l 16,0 0,16 -16,0 z M 80,240 l 16,0 0,16 -16,0 z M 128,240 l 16,0 0,16 -16,0 z M 160,240 l 16,0 0,16 -16,0 z M 176,240 l 16,0 0,16 -16,0 z M 192,240 l 16,0 0,16 -16,0 z M 208,240 l 16,0 0,16 -16,0 z M 256,240 l 16,0 0,16 -16,0 z M 304,240 l 16,0 0,16 -16,0 z M 320,240 l 16,0 0,16 -16,0 z M 368,240 l 16,0 0,16 -16,0 z M 384,240 l 16,0 0,16 -16,0 z M 400,240 l 16,0 0,16 -16,0 z M 416,240 l 16,0 0,16 -16,0 z M 464,240 l 16,0 0,16 -16,0 z M 480,240 l 16,0 0,16 -16,0 z M 528,240 l 16,0 0,16 -16,0 z M 624,240 l 16,0 0,16 -16,0 z M 640,240 l 16,0 0,16 -16,0 z M 656,240 l 16,0 0,16 -16,0 z M 672,240 l 16,0 0,16 -16,0 z M 704,240 l 16,0 0,16 -16,0 z M 0,256 l 16,0 0,16 -16,0 z M 80,256 l 16,0 0,16 -16,0 z M 96,256 l 16,0 0,16 -16,0 z M 112,256 l 16,0 0,16 -16,0 z M 144,256 l 16,0 0,16 -16,0 z M 160,256 l 16,0 0,16 -16,0 z M 176,256 l 16,0 0,16 -16,0 z M 192,256 l 16,0 0,16 -16,0 z M 240,256 l 16,0 0,16 -16,0 z M 320,256 l 16,0 0,16 -16,0 z M 352,256 l 16,0 0,16 -16,0 z M 384,256 l 16,0 0,16 -16,0 z M 416,256 l 16,0 0,16 -16,0 z M 432,256 l 16,0 0,16 -16,0 z M 464,256 l 16,0 0,16 -16,0 z M 496,256 l 16,0 0,16 -16,0 z M 512,256 l 16,0 0,16 -16,0 z M 560,256 l 16,0 0,16 -16,0 z M 576,256 l 16,0 0,16 -16,0 z M 592,256 l 16,0 0,16 -16,0 z M 608,256 l 16,0 0,16 -16,0 z M 624,256 l 16,0 0,16 -16,0 z M 640,256 l 16,0 0,16 -16,0 z M 656,256 l 16,0 0,16 -16,0 z M 688,256 l 16,0 0,16 -16,0 z M 720,256 l 16,0 0,16 -16,0 z M 736,256 l 16,0 0,16 -16,0 z M 752,256 l 16,0 0,16 -16,0 z M 32,272 l 16,0 0,16 -16,0 z M 256,272 l 16,0 0,16 -16,0 z M 368,272 l 16,0 0,16 -16,0 z M 384,272 l 16,0 0,16 -16,0 z M 400,272 l 16,0 0,16 -16,0 z M 432,272 l 16,0 0,16 -16,0 z M 448,272 l 16,0 0,16 -16,0 z M 464,272 l 16,0 0,16 -16,0 z M 560,272 l 16,0 0,16 -16,0 z M 576,272 l 16,0 0,16 -16,0 z M 592,272 l 16,0 0,16 -16,0 z M 656,272 l 16,0 0,16 -16,0 z M 672,272 l 16,0 0,16 -16,0 z M 688,272 l 16,0 0,16 -16,0 z M 720,272 l 16,0 0,16 -16,0 z M 736,272 l 16,0 0,16 -16,0 z M 0,288 l 16,0 0,16 -16,0 z M 32,288 l 16,0 0,16 -16,0 z M 48,288 l 16,0 0,16 -16,0 z M 80,288 l 16,0 0,16 -16,0 z M 96,288 l 16,0 0,16 -16,0 z M 144,288 l 16,0 0,16 -16,0 z M 160,288 l 16,0 0,16 -16,0 z M 176,288 l 16,0 0,16 -16,0 z M 192,288 l 16,0 0,16 -16,0 z M 208,288 l 16,0 0,16 -16,0 z M 224,288 l 16,0 0,16 -16,0 z M 240,288 l 16,0 0,16 -16,0 z M 272,288 l 16,0 0,16 -16,0 z M 304,288 l 16,0 0,16 -16,0 z M 320,288 l 16,0 0,16 -16,0 z M 368,288 l 16,0 0,16 -16,0 z M 384,288 l 16,0 0,16 -16,0 z M 400,288 l 16,0 0,16 -16,0 z M 432,288 l 16,0 0,16 -16,0 z M 464,288 l 16,0 0,16 -16,0 z M 480,288 l 16,0 0,16 -16,0 z M 512,288 l 16,0 0,16 -16,0 z M 528,288 l 16,0 0,16 -16,0 z M 544,288 l 16,0 0,16 -16,0 z M 560,288 l 16,0 0,16 -16,0 z M 608,288 l 16,0 0,16 -16,0 z M 688,288 l 16,0 0,16 -16,0 z M 720,288 l 16,0 0,16 -16,0 z M 752,288 l 16,0 0,16 -16,0 z M 768,288 l 16,0 0,16 -16,0 z M 16,304 l 16,0 0,16 -16,0 z M 32,304 l 16,0 0,16 -16,0 z M 48,304 l 16,0 0,16 -16,0 z M 112,304 l 16,0 0,16 -16,0 z M 144,304 l 16,0 0,16 -16,0 z M 160,304 l 16,0 0,16 -16,0 z M 192,304 l 16,0 0,16 -16,0 z M 272,304 l 16,0 0,16 -16,0 z M 288,304 l 16,0 0,16 -16,0 z M 304,304 l 16,0 0,16 -16,0 z M 320,304 l 16,0 0,16 -16,0 z M 368,304 l 16,0 0,16 -16,0 z M 400,304 l 16,0 0,16 -16,0 z M 432,304 l 16,0 0,16 -16,0 z M 464,304 l 16,0 0,16 -16,0 z M 480,304 l 16,0 0,16 -16,0 z M 592,304 l 16,0 0,16 -16,0 z M 608,304 l 16,0 0,16 -16,0 z M 640,304 l 16,0 0,16 -16,0 z M 672,304 l 16,0 0,16 -16,0 z M 688,304 l 16,0 0,16 -16,0 z M 704,304 l 16,0 0,16 -16,0 z M 752,304 l 16,0 0,16 -16,0 z M 0,320 l 16,0 0,16 -16,0 z M 16,320 l 16,0 0,16 -16,0 z M 96,320 l 16,0 0,16 -16,0 z M 144,320 l 16,0 0,16 -16,0 z M 160,320 l 16,0 0,16 -16,0 z M 224,320 l 16,0 0,16 -16,0 z M 256,320 l 16,0 0,16 -16,0 z M 272,320 l 16,0 0,16 -16,0 z M 288,320 l 16,0 0,16 -16,0 z M 304,320 l 16,0 0,16 -16,0 z M 352,320 l 16,0 0,16 -16,0 z M 384,320 l 16,0 0,16 -16,0 z M 400,320 l 16,0 0,16 -16,0 z M 416,320 l 16,0 0,16 -16,0 z M 448,320 l 16,0 0,16 -16,0 z M 464,320 l 16,0 0,16 -16,0 z M 480,320 l 16,0 0,16 -16,0 z M 512,320 l 16,0 0,16 -16,0 z M 528,320 l 16,0 0,16 -16,0 z M 544,320 l 16,0 0,16 -16,0 z M 560,320 l 16,0 0,16 -16,0 z M 576,320 l 16,0 0,16 -16,0 z M 592,320 l 16,0 0,16 -16,0 z M 608,320 l 16,0 0,16 -16,0 z M 640,320 l 16,0 0,16 -16,0 z M 672,320 l 16,0 0,16 -16,0 z M 688,320 l 16,0 0,16 -16,0 z M 736,320 l 16,0 0,16 -16,0 z M 768,320 l 16,0 0,16 -16,0 z M 32,336 l 16,0 0,16 -16,0 z M 48,336 l 16,0 0,16 -16,0 z M 64,336 l 16,0 0,16 -16,0 z M 80,336 l 16,0 0,16 -16,0 z M 112,336 l 16,0 0,16 -16,0 z M 128,336 l 16,0 0,16 -16,0 z M 160,336 l 16,0 0,16 -16,0 z M 176,336 l 16,0 0,16 -16,0 z M 224,336 l 16,0 0,16 -16,0 z M 240,336 l 16,0 0,16 -16,0 z M 304,336 l 16,0 0,16 -16,0 z M 320,336 l 16,0 0,16 -16,0 z M 336,336 l 16,0 0,16 -16,0 z M 384,336 l 16,0 0,16 -16,0 z M 400,336 l 16,0 0,16 -16,0 z M 416,336 l 16,0 0,16 -16,0 z M 432,336 l 16,0 0,16 -16,0 z M 464,336 l 16,0 0,16 -16,0 z M 480,336 l 16,0 0,16 -16,0 z M 560,336 l 16,0 0,16 -16,0 z M 656,336 l 16,0 0,16 -16,0 z M 672,336 l 16,0 0,16 -16,0 z M 48,352 l 16,0 0,16 -16,0 z M 64,352 l 16,0 0,16 -16,0 z M 80,352 l 16,0 0,16 -16,0 z M 96,352 l 16,0 0,16 -16,0 z M 112,352 l 16,0 0,16 -16,0 z M 128,352 l 16,0 0,16 -16,0 z M 144,352 l 16,0 0,16 -16,0 z M 160,352 l 16,0 0,16 -16,0 z M 192,352 l 16,0 0,16 -16,0 z M 224,352 l 16,0 0,16 -16,0 z M 240,352 l 16,0 0,16 -16,0 z M 288,352 l 16,0 0,16 -16,0 z M 320,352 l 16,0 0,16 -16,0 z M 336,352 l 16,0 0,16 -16,0 z M 352,352 l 16,0 0,16 -16,0 z M 368,352 l 16,0 0,16 -16,0 z M 384,352 l 16,0 0,16 -16,0 z M 400,352 l 16,0 0,16 -16,0 z M 416,352 l 16,0 0,16 -16,0 z M 448,352 l 16,0 0,16 -16,0 z M 496,352 l 16,0 0,16 -16,0 z M 544,352 l 16,0 0,16 -16,0 z M 576,352 l 16,0 0,16 -16,0 z M 608,352 l 16,0 0,16 -16,0 z M 624,352 l 16,0 0,16 -16,0 z M 640,352 l 16,0 0,16 -16,0 z M 656,352 l 16,0 0,16 -16,0 z M 672,352 l 16,0 0,16 -16,0 z M 688,352 l 16,0 0,16 -16,0 z M 704,352 l 16,0 0,16 -16,0 z M 752,352 l 16,0 0,16 -16,0 z M 768,352 l 16,0 0,16 -16,0 z M 16,368 l 16,0 0,16 -16,0 z M 32,368 l 16,0 0,16 -16,0 z M 64,368 l 16,0 0,16 -16,0 z M 128,368 l 16,0 0,16 -16,0 z M 144,368 l 16,0 0,16 -16,0 z M 176,368 l 16,0 0,16 -16,0 z M 208,368 l 16,0 0,16 -16,0 z M 224,368 l 16,0 0,16 -16,0 z M 272,368 l 16,0 0,16 -16,0 z M 336,368 l 16,0 0,16 -16,0 z M 352,368 l 16,0 0,16 -16,0 z M 416,368 l 16,0 0,16 -16,0 z M 432,368 l 16,0 0,16 -16,0 z M 464,368 l 16,0 0,16 -16,0 z M 480,368 l 16,0 0,16 -16,0 z M 496,368 l 16,0 0,16 -16,0 z M 528,368 l 16,0 0,16 -16,0 z M 608,368 l 16,0 0,16 -16,0 z M 640,368 l 16,0 0,16 -16,0 z M 704,368 l 16,0 0,16 -16,0 z M 16,384 l 16,0 0,16 -16,0 z M 32,384 l 16,0 0,16 -16,0 z M 64,384 l 16,0 0,16 -16,0 z M 96,384 l 16,0 0,16 -16,0 z M 128,384 l 16,0 0,16 -16,0 z M 144,384 l 16,0 0,16 -16,0 z M 192,384 l 16,0 0,16 -16,0 z M 224,384 l 16,0 0,16 -16,0 z M 272,384 l 16,0 0,16 -16,0 z M 288,384 l 16,0 0,16 -16,0 z M 304,384 l 16,0 0,16 -16,0 z M 352,384 l 16,0 0,16 -16,0 z M 384,384 l 16,0 0,16 -16,0 z M 416,384 l 16,0 0,16 -16,0 z M 544,384 l 16,0 0,16 -16,0 z M 576,384 l 16,0 0,16 -16,0 z M 592,384 l 16,0 0,16 -16,0 z M 640,384 l 16,0 0,16 -16,0 z M 672,384 l 16,0 0,16 -16,0 z M 704,384 l 16,0 0,16 -16,0 z M 720,384 l 16,0 0,16 -16,0 z M 736,384 l 16,0 0,16 -16,0 z M 768,384 l 16,0 0,16 -16,0 z M 48,400 l 16,0 0,16 -16,0 z M 64,400 l 16,0 0,16 -16,0 z M 128,400 l 16,0 0,16 -16,0 z M 144,400 l 16,0 0,16 -16,0 z M 160,400 l 16,0 0,16 -16,0 z M 192,400 l 16,0 0,16 -16,0 z M 208,400 l 16,0 0,16 -16,0 z M 272,400 l 16,0 0,16 -16,0 z M 352,400 l 16,0 0,16 -16,0 z M 416,400 l 16,0 0,16 -16,0 z M 464,400 l 16,0 0,16 -16,0 z M 496,400 l 16,0 0,16 -16,0 z M 560,400 l 16,0 0,16 -16,0 z M 592,400 l 16,0 0,16 -16,0 z M 640,400 l 16,0 0,16 -16,0 z M 704,400 l 16,0 0,16 -16,0 z M 720,400 l 16,0 0,16 -16,0 z M 752,400 l 16,0 0,16 -16,0 z M 0,416 l 16,0 0,16 -16,0 z M 64,416 l 16,0 0,16 -16,0 z M 80,416 l 16,0 0,16 -16,0 z M 96,416 l 16,0 0,16 -16,0 z M 112,416 l 16,0 0,16 -16,0 z M 128,416 l 16,0 0,16 -16,0 z M 160,416 l 16,0 0,16 -16,0 z M 208,416 l 16,0 0,16 -16,0 z M 240,416 l 16,0 0,16 -16,0 z M 256,416 l 16,0 0,16 -16,0 z M 272,416 l 16,0 0,16 -16,0 z M 320,416 l 16,0 0,16 -16,0 z M 352,416 l 16,0 0,16 -16,0 z M 368,416 l 16,0 0,16 -16,0 z M 384,416 l 16,0 0,16 -16,0 z M 400,416 l 16,0 0,16 -16,0 z M 416,416 l 16,0 0,16 -16,0 z M 432,416 l 16,0 0,16 -16,0 z M 464,416 l 16,0 0,16 -16,0 z M 480,416 l 16,0 0,16 -16,0 z M 528,416 l 16,0 0,16 -16,0 z M 544,416 l 16,0 0,16 -16,0 z M 576,416 l 16,0 0,16 -16,0 z M 608,416 l 16,0 0,16 -16,0 z M 640,416 l 16,0 0,16 -16,0 z M 656,416 l 16,0 0,16 -16,0 z M 672,416 l 16,0 0,16 -16,0 z M 688,416 l 16,0 0,16 -16,0 z M 704,416 l 16,0 0,16 -16,0 z M 720,416 l 16,0 0,16 -16,0 z M 736,416 l 16,0 0,16 -16,0 z M 752,416 l 16,0 0,16 -16,0 z M 768,416 l 16,0 0,16 -16,0 z M 32,432 l 16,0 0,16 -16,0 z M 208,432 l 16,0 0,16 -16,0 z M 256,432 l 16,0 0,16 -16,0 z M 288,432 l 16,0 0,16 -16,0 z M 304,432 l 16,0 0,16 -16,0 z M 320,432 l 16,0 0,16 -16,0 z M 336,432 l 16,0 0,16 -16,0 z M 384,432 l 16,0 0,16 -16,0 z M 400,432 l 16,0 0,16 -16,0 z M 416,432 l 16,0 0,16 -16,0 z M 448,432 l 16,0 0,16 -16,0 z M 480,432 l 16,0 0,16 -16,0 z M 512,432 l 16,0 0,16 -16,0 z M 592,432 l 16,0 0,16 -16,0 z M 608,432 l 16,0 0,16 -16,0 z M 640,432 l 16,0 0,16 -16,0 z M 656,432 l 16,0 0,16 -16,0 z M 688,432 l 16,0 0,16 -16,0 z M 752,432 l 16,0 0,16 -16,0 z M 768,432 l 16,0 0,16 -16,0 z M 16,448 l 16,0 0,16 -16,0 z M 48,448 l 16,0 0,16 -16,0 z M 64,448 l 16,0 0,16 -16,0 z M 80,448 l 16,0 0,16 -16,0 z M 96,448 l 16,0 0,16 -16,0 z M 144,448 l 16,0 0,16 -16,0 z M 176,448 l 16,0 0,16 -16,0 z M 192,448 l 16,0 0,16 -16,0 z M 208,448 l 16,0 0,16 -16,0 z M 304,448 l 16,0 0,16 -16,0 z M 320,448 l 16,0 0,16 -16,0 z M 336,448 l 16,0 0,16 -16,0 z M 400,448 l 16,0 0,16 -16,0 z M 416,448 l 16,0 0,16 -16,0 z M 480,448 l 16,0 0,16 -16,0 z M 496,448 l 16,0 0,16 -16,0 z M 560,448 l 16,0 0,16 -16,0 z M 576,448 l 16,0 0,16 -16,0 z M 592,448 l 16,0 0,16 -16,0 z M 624,448 l 16,0 0,16 -16,0 z M 640,448 l 16,0 0,16 -16,0 z M 656,448 l 16,0 0,16 -16,0 z M 672,448 l 16,0 0,16 -16,0 z M 704,448 l 16,0 0,16 -16,0 z M 736,448 l 16,0 0,16 -16,0 z M 752,448 l 16,0 0,16 -16,0 z M 0,464 l 16,0 0,16 -16,0 z M 32,464 l 16,0 0,16 -16,0 z M 48,464 l 16,0 0,16 -16,0 z M 208,464 l 16,0 0,16 -16,0 z M 256,464 l 16,0 0,16 -16,0 z M 288,464 l 16,0 0,16 -16,0 z M 336,464 l 16,0 0,16 -16,0 z M 352,464 l 16,0 0,16 -16,0 z M 368,464 l 16,0 0,16 -16,0 z M 384,464 l 16,0 0,16 -16,0 z M 416,464 l 16,0 0,16 -16,0 z M 432,464 l 16,0 0,16 -16,0 z M 496,464 l 16,0 0,16 -16,0 z M 560,464 l 16,0 0,16 -16,0 z M 592,464 l 16,0 0,16 -16,0 z M 624,464 l 16,0 0,16 -16,0 z M 640,464 l 16,0 0,16 -16,0 z M 656,464 l 16,0 0,16 -16,0 z M 688,464 l 16,0 0,16 -16,0 z M 736,464 l 16,0 0,16 -16,0 z M 0,480 l 16,0 0,16 -16,0 z M 64,480 l 16,0 0,16 -16,0 z M 80,480 l 16,0 0,16 -16,0 z M 96,480 l 16,0 0,16 -16,0 z M 112,480 l 16,0 0,16 -16,0 z M 128,480 l 16,0 0,16 -16,0 z M 160,480 l 16,0 0,16 -16,0 z M 176,480 l 16,0 0,16 -16,0 z M 192,480 l 16,0 0,16 -16,0 z M 208,480 l 16,0 0,16 -16,0 z M 224,480 l 16,0 0,16 -16,0 z M 272,480 l 16,0 0,16 -16,0 z M 336,480 l 16,0 0,16 -16,0 z M 384,480 l 16,0 0,16 -16,0 z M 416,480 l 16,0 0,16 -16,0 z M 432,480 l 16,0 0,16 -16,0 z M 544,480 l 16,0 0,16 -16,0 z M 576,480 l 16,0 0,16 -16,0 z M 592,480 l 16,0 0,16 -16,0 z M 624,480 l 16,0 0,16 -16,0 z M 640,480 l 16,0 0,16 -16,0 z M 656,480 l 16,0 0,16 -16,0 z M 672,480 l 16,0 0,16 -16,0 z M 688,480 l 16,0 0,16 -16,0 z M 752,480 l 16,0 0,16 -16,0 z M 768,480 l 16,0 0,16 -16,0 z M 0,496 l 16,0 0,16 -16,0 z M 16,496 l 16,0 0,16 -16,0 z M 48,496 l 16,0 0,16 -16,0 z M 64,496 l 16,0 0,16 -16,0 z M 80,496 l 16,0 0,16 -16,0 z M 112,496 l 16,0 0,16 -16,0 z M 144,496 l 16,0 0,16 -16,0 z M 160,496 l 16,0 0,16 -16,0 z M 176,496 l 16,0 0,16 -16,0 z M 192,496 l 16,0 0,16 -16,0 z M 256,496 l 16,0 0,16 -16,0 z M 272,496 l 16,0 0,16 -16,0 z M 288,496 l 16,0 0,16 -16,0 z M 320,496 l 16,0 0,16 -16,0 z M 336,496 l 16,0 0,16 -16,0 z M 352,496 l 16,0 0,16 -16,0 z M 416,496 l 16,0 0,16 -16,0 z M 432,496 l 16,0 0,16 -16,0 z M 448,496 l 16,0 0,16 -16,0 z M 464,496 l 16,0 0,16 -16,0 z M 480,496 l 16,0 0,16 -16,0 z M 560,496 l 16,0 0,16 -16,0 z M 592,496 l 16,0 0,16 -16,0 z M 608,496 l 16,0 0,16 -16,0 z M 640,496 l 16,0 0,16 -16,0 z M 704,496 l 16,0 0,16 -16,0 z M 752,496 l 16,0 0,16 -16,0 z M 768,496 l 16,0 0,16 -16,0 z M 0,512 l 16,0 0,16 -16,0 z M 16,512 l 16,0 0,16 -16,0 z M 32,512 l 16,0 0,16 -16,0 z M 64,512 l 16,0 0,16 -16,0 z M 80,512 l 16,0 0,16 -16,0 z M 96,512 l 16,0 0,16 -16,0 z M 112,512 l 16,0 0,16 -16,0 z M 128,512 l 16,0 0,16 -16,0 z M 144,512 l 16,0 0,16 -16,0 z M 160,512 l 16,0 0,16 -16,0 z M 192,512 l 16,0 0,16 -16,0 z M 240,512 l 16,0 0,16 -16,0 z M 256,512 l 16,0 0,16 -16,0 z M 272,512 l 16,0 0,16 -16,0 z M 288,512 l 16,0 0,16 -16,0 z M 304,512 l 16,0 0,16 -16,0 z M 320,512 l 16,0 0,16 -16,0 z M 336,512 l 16,0 0,16 -16,0 z M 384,512 l 16,0 0,16 -16,0 z M 416,512 l 16,0 0,16 -16,0 z M 464,512 l 16,0 0,16 -16,0 z M 480,512 l 16,0 0,16 -16,0 z M 496,512 l 16,0 0,16 -16,0 z M 512,512 l 16,0 0,16 -16,0 z M 528,512 l 16,0 0,16 -16,0 z M 560,512 l 16,0 0,16 -16,0 z M 576,512 l 16,0 0,16 -16,0 z M 592,512 l 16,0 0,16 -16,0 z M 624,512 l 16,0 0,16 -16,0 z M 640,512 l 16,0 0,16 -16,0 z M 656,512 l 16,0 0,16 -16,0 z M 688,512 l 16,0 0,16 -16,0 z M 704,512 l 16,0 0,16 -16,0 z M 736,512 l 16,0 0,16 -16,0 z M 752,512 l 16,0 0,16 -16,0 z M 768,512 l 16,0 0,16 -16,0 z M 16,528 l 16,0 0,16 -16,0 z M 48,528 l 16,0 0,16 -16,0 z M 64,528 l 16,0 0,16 -16,0 z M 112,528 l 16,0 0,16 -16,0 z M 128,528 l 16,0 0,16 -16,0 z M 192,528 l 16,0 0,16 -16,0 z M 208,528 l 16,0 0,16 -16,0 z M 240,528 l 16,0 0,16 -16,0 z M 256,528 l 16,0 0,16 -16,0 z M 304,528 l 16,0 0,16 -16,0 z M 368,528 l 16,0 0,16 -16,0 z M 432,528 l 16,0 0,16 -16,0 z M 464,528 l 16,0 0,16 -16,0 z M 480,528 l 16,0 0,16 -16,0 z M 512,528 l 16,0 0,16 -16,0 z M 592,528 l 16,0 0,16 -16,0 z M 624,528 l 16,0 0,16 -16,0 z M 640,528 l 16,0 0,16 -16,0 z M 656,528 l 16,0 0,16 -16,0 z M 688,528 l 16,0 0,16 -16,0 z M 736,528 l 16,0 0,16 -16,0 z M 0,544 l 16,0 0,16 -16,0 z M 16,544 l 16,0 0,16 -16,0 z M 64,544 l 16,0 0,16 -16,0 z M 96,544 l 16,0 0,16 -16,0 z M 112,544 l 16,0 0,16 -16,0 z M 160,544 l 16,0 0,16 -16,0 z M 192,544 l 16,0 0,16 -16,0 z M 208,544 l 16,0 0,16 -16,0 z M 224,544 l 16,0 0,16 -16,0 z M 256,544 l 16,0 0,16 -16,0 z M 336,544 l 16,0 0,16 -16,0 z M 352,544 l 16,0 0,16 -16,0 z M 368,544 l 16,0 0,16 -16,0 z M 432,544 l 16,0 0,16 -16,0 z M 464,544 l 16,0 0,16 -16,0 z M 496,544 l 16,0 0,16 -16,0 z M 512,544 l 16,0 0,16 -16,0 z M 528,544 l 16,0 0,16 -16,0 z M 544,544 l 16,0 0,16 -16,0 z M 576,544 l 16,0 0,16 -16,0 z M 592,544 l 16,0 0,16 -16,0 z M 624,544 l 16,0 0,16 -16,0 z M 656,544 l 16,0 0,16 -16,0 z M 672,544 l 16,0 0,16 -16,0 z M 752,544 l 16,0 0,16 -16,0 z M 768,544 l 16,0 0,16 -16,0 z M 64,560 l 16,0 0,16 -16,0 z M 80,560 l 16,0 0,16 -16,0 z M 112,560 l 16,0 0,16 -16,0 z M 176,560 l 16,0 0,16 -16,0 z M 240,560 l 16,0 0,16 -16,0 z M 272,560 l 16,0 0,16 -16,0 z M 288,560 l 16,0 0,16 -16,0 z M 448,560 l 16,0 0,16 -16,0 z M 464,560 l 16,0 0,16 -16,0 z M 480,560 l 16,0 0,16 -16,0 z M 512,560 l 16,0 0,16 -16,0 z M 544,560 l 16,0 0,16 -16,0 z M 560,560 l 16,0 0,16 -16,0 z M 592,560 l 16,0 0,16 -16,0 z M 640,560 l 16,0 0,16 -16,0 z M 656,560 l 16,0 0,16 -16,0 z M 752,560 l 16,0 0,16 -16,0 z M 0,576 l 16,0 0,16 -16,0 z M 16,576 l 16,0 0,16 -16,0 z M 64,576 l 16,0 0,16 -16,0 z M 96,576 l 16,0 0,16 -16,0 z M 112,576 l 16,0 0,16 -16,0 z M 128,576 l 16,0 0,16 -16,0 z M 160,576 l 16,0 0,16 -16,0 z M 176,576 l 16,0 0,16 -16,0 z M 192,576 l 16,0 0,16 -16,0 z M 208,576 l 16,0 0,16 -16,0 z M 224,576 l 16,0 0,16 -16,0 z M 240,576 l 16,0 0,16 -16,0 z M 272,576 l 16,0 0,16 -16,0 z M 320,576 l 16,0 0,16 -16,0 z M 336,576 l 16,0 0,16 -16,0 z M 352,576 l 16,0 0,16 -16,0 z M 368,576 l 16,0 0,16 -16,0 z M 432,576 l 16,0 0,16 -16,0 z M 464,576 l 16,0 0,16 -16,0 z M 496,576 l 16,0 0,16 -16,0 z M 544,576 l 16,0 0,16 -16,0 z M 560,576 l 16,0 0,16 -16,0 z M 576,576 l 16,0 0,16 -16,0 z M 608,576 l 16,0 0,16 -16,0 z M 624,576 l 16,0 0,16 -16,0 z M 640,576 l 16,0 0,16 -16,0 z M 656,576 l 16,0 0,16 -16,0 z M 672,576 l 16,0 0,16 -16,0 z M 688,576 l 16,0 0,16 -16,0 z M 704,576 l 16,0 0,16 -16,0 z M 736,576 l 16,0 0,16 -16,0 z M 768,576 l 16,0 0,16 -16,0 z M 0,592 l 16,0 0,16 -16,0 z M 32,592 l 16,0 0,16 -16,0 z M 80,592 l 16,0 0,16 -16,0 z M 128,592 l 16,0 0,16 -16,0 z M 144,592 l 16,0 0,16 -16,0 z M 176,592 l 16,0 0,16 -16,0 z M 224,592 l 16,0 0,16 -16,0 z M 272,592 l 16,0 0,16 -16,0 z M 288,592 l 16,0 0,16 -16,0 z M 400,592 l 16,0 0,16 -16,0 z M 416,592 l 16,0 0,16 -16,0 z M 432,592 l 16,0 0,16 -16,0 z M 448,592 l 16,0 0,16 -16,0 z M 464,592 l 16,0 0,16 -16,0 z M 496,592 l 16,0 0,16 -16,0 z M 512,592 l 16,0 0,16 -16,0 z M 560,592 l 16,0 0,16 -16,0 z M 576,592 l 16,0 0,16 -16,0 z M 592,592 l 16,0 0,16 -16,0 z M 640,592 l 16,0 0,16 -16,0 z M 688,592 l 16,0 0,16 -16,0 z M 720,592 l 16,0 0,16 -16,0 z M 16,608 l 16,0 0,16 -16,0 z M 80,608 l 16,0 0,16 -16,0 z M 96,608 l 16,0 0,16 -16,0 z M 128,608 l 16,0 0,16 -16,0 z M 160,608 l 16,0 0,16 -16,0 z M 176,608 l 16,0 0,16 -16,0 z M 192,608 l 16,0 0,16 -16,0 z M 208,608 l 16,0 0,16 -16,0 z M 240,608 l 16,0 0,16 -16,0 z M 320,608 l 16,0 0,16 -16,0 z M 336,608 l 16,0 0,16 -16,0 z M 352,608 l 16,0 0,16 -16,0 z M 384,608 l 16,0 0,16 -16,0 z M 400,608 l 16,0 0,16 -16,0 z M 432,608 l 16,0 0,16 -16,0 z M 464,608 l 16,0 0,16 -16,0 z M 528,608 l 16,0 0,16 -16,0 z M 544,608 l 16,0 0,16 -16,0 z M 560,608 l 16,0 0,16 -16,0 z M 576,608 l 16,0 0,16 -16,0 z M 592,608 l 16,0 0,16 -16,0 z M 608,608 l 16,0 0,16 -16,0 z M 640,608 l 16,0 0,16 -16,0 z M 656,608 l 16,0 0,16 -16,0 z M 672,608 l 16,0 0,16 -16,0 z M 688,608 l 16,0 0,16 -16,0 z M 768,608 l 16,0 0,16 -16,0 z M 16,624 l 16,0 0,16 -16,0 z M 32,624 l 16,0 0,16 -16,0 z M 48,624 l 16,0 0,16 -16,0 z M 176,624 l 16,0 0,16 -16,0 z M 192,624 l 16,0 0,16 -16,0 z M 240,624 l 16,0 0,16 -16,0 z M 256,624 l 16,0 0,16 -16,0 z M 272,624 l 16,0 0,16 -16,0 z M 288,624 l 16,0 0,16 -16,0 z M 304,624 l 16,0 0,16 -16,0 z M 336,624 l 16,0 0,16 -16,0 z M 352,624 l 16,0 0,16 -16,0 z M 368,624 l 16,0 0,16 -16,0 z M 400,624 l 16,0 0,16 -16,0 z M 480,624 l 16,0 0,16 -16,0 z M 496,624 l 16,0 0,16 -16,0 z M 512,624 l 16,0 0,16 -16,0 z M 544,624 l 16,0 0,16 -16,0 z M 656,624 l 16,0 0,16 -16,0 z M 752,624 l 16,0 0,16 -16,0 z M 768,624 l 16,0 0,16 -16,0 z M 0,640 l 16,0 0,16 -16,0 z M 16,640 l 16,0 0,16 -16,0 z M 32,640 l 16,0 0,16 -16,0 z M 96,640 l 16,0 0,16 -16,0 z M 144,640 l 16,0 0,16 -16,0 z M 176,640 l 16,0 0,16 -16,0 z M 208,640 l 16,0 0,16 -16,0 z M 256,640 l 16,0 0,16 -16,0 z M 272,640 l 16,0 0,16 -16,0 z M 304,640 l 16,0 0,16 -16,0 z M 352,640 l 16,0 0,16 -16,0 z M 368,640 l 16,0 0,16 -16,0 z M 384,640 l 16,0 0,16 -16,0 z M 400,640 l 16,0 0,16 -16,0 z M 416,640 l 16,0 0,16 -16,0 z M 464,640 l 16,0 0,16 -16,0 z M 496,640 l 16,0 0,16 -16,0 z M 544,640 l 16,0 0,16 -16,0 z M 560,640 l 16,0 0,16 -16,0 z M 576,640 l 16,0 0,16 -16,0 z M 592,640 l 16,0 0,16 -16,0 z M 624,640 l 16,0 0,16 -16,0 z M 640,640 l 16,0 0,16 -16,0 z M 656,640 l 16,0 0,16 -16,0 z M 672,640 l 16,0 0,16 -16,0 z M 688,640 l 16,0 0,16 -16,0 z M 704,640 l 16,0 0,16 -16,0 z M 720,640 l 16,0 0,16 -16,0 z M 736,640 l 16,0 0,16 -16,0 z M 752,640 l 16,0 0,16 -16,0 z M 128,656 l 16,0 0,16 -16,0 z M 160,656 l 16,0 0,16 -16,0 z M 176,656 l 16,0 0,16 -16,0 z M 224,656 l 16,0 0,16 -16,0 z M 272,656 l 16,0 0,16 -16,0 z M 288,656 l 16,0 0,16 -16,0 z M 352,656 l 16,0 0,16 -16,0 z M 416,656 l 16,0 0,16 -16,0 z M 448,656 l 16,0 0,16 -16,0 z M 480,656 l 16,0 0,16 -16,0 z M 496,656 l 16,0 0,16 -16,0 z M 528,656 l 16,0 0,16 -16,0 z M 560,656 l 16,0 0,16 -16,0 z M 592,656 l 16,0 0,16 -16,0 z M 640,656 l 16,0 0,16 -16,0 z M 704,656 l 16,0 0,16 -16,0 z M 752,656 l 16,0 0,16 -16,0 z M 0,672 l 16,0 0,16 -16,0 z M 16,672 l 16,0 0,16 -16,0 z M 32,672 l 16,0 0,16 -16,0 z M 48,672 l 16,0 0,16 -16,0 z M 64,672 l 16,0 0,16 -16,0 z M 80,672 l 16,0 0,16 -16,0 z M 96,672 l 16,0 0,16 -16,0 z M 144,672 l 16,0 0,16 -16,0 z M 160,672 l 16,0 0,16 -16,0 z M 176,672 l 16,0 0,16 -16,0 z M 208,672 l 16,0 0,16 -16,0 z M 224,672 l 16,0 0,16 -16,0 z M 288,672 l 16,0 0,16 -16,0 z M 304,672 l 16,0 0,16 -16,0 z M 320,672 l 16,0 0,16 -16,0 z M 352,672 l 16,0 0,16 -16,0 z M 384,672 l 16,0 0,16 -16,0 z M 416,672 l 16,0 0,16 -16,0 z M 432,672 l 16,0 0,16 -16,0 z M 448,672 l 16,0 0,16 -16,0 z M 480,672 l 16,0 0,16 -16,0 z M 512,672 l 16,0 0,16 -16,0 z M 528,672 l 16,0 0,16 -16,0 z M 560,672 l 16,0 0,16 -16,0 z M 592,672 l 16,0 0,16 -16,0 z M 608,672 l 16,0 0,16 -16,0 z M 640,672 l 16,0 0,16 -16,0 z M 672,672 l 16,0 0,16 -16,0 z M 704,672 l 16,0 0,16 -16,0 z M 720,672 l 16,0 0,16 -16,0 z M 752,672 l 16,0 0,16 -16,0 z M 768,672 l 16,0 0,16 -16,0 z M 0,688 l 16,0 0,16 -16,0 z M 96,688 l 16,0 0,16 -16,0 z M 144,688 l 16,0 0,16 -16,0 z M 176,688 l 16,0 0,16 -16,0 z M 192,688 l 16,0 0,16 -16,0 z M 224,688 l 16,0 0,16 -16,0 z M 240,688 l 16,0 0,16 -16,0 z M 272,688 l 16,0 0,16 -16,0 z M 336,688 l 16,0 0,16 -16,0 z M 352,688 l 16,0 0,16 -16,0 z M 416,688 l 16,0 0,16 -16,0 z M 432,688 l 16,0 0,16 -16,0 z M 480,688 l 16,0 0,16 -16,0 z M 512,688 l 16,0 0,16 -16,0 z M 528,688 l 16,0 0,16 -16,0 z M 560,688 l 16,0 0,16 -16,0 z M 592,688 l 16,0 0,16 -16,0 z M 608,688 l 16,0 0,16 -16,0 z M 624,688 l 16,0 0,16 -16,0 z M 640,688 l 16,0 0,16 -16,0 z M 704,688 l 16,0 0,16 -16,0 z M 752,688 l 16,0 0,16 -16,0 z M 768,688 l 16,0 0,16 -16,0 z M 0,704 l 16,0 0,16 -16,0 z M 32,704 l 16,0 0,16 -16,0 z M 48,704 l 16,0 0,16 -16,0 z M 64,704 l 16,0 0,16 -16,0 z M 96,704 l 16,0 0,16 -16,0 z M 128,704 l 16,0 0,16 -16,0 z M 224,704 l 16,0 0,16 -16,0 z M 240,704 l 16,0 0,16 -16,0 z M 256,704 l 16,0 0,16 -16,0 z M 320,704 l 16,0 0,16 -16,0 z M 352,704 l 16,0 0,16 -16,0 z M 368,704 l 16,0 0,16 -16,0 z M 384,704 l 16,0 0,16 -16,0 z M 400,704 l 16,0 0,16 -16,0 z M 416,704 l 16,0 0,16 -16,0 z M 432,704 l 16,0 0,16 -16,0 z M 464,704 l 16,0 0,16 -16,0 z M 496,704 l 16,0 0,16 -16,0 z M 528,704 l 16,0 0,16 -16,0 z M 544,704 l 16,0 0,16 -16,0 z M 560,704 l 16,0 0,16 -16,0 z M 576,704 l 16,0 0,16 -16,0 z M 592,704 l 16,0 0,16 -16,0 z M 608,704 l 16,0 0,16 -16,0 z M 624,704 l 16,0 0,16 -16,0 z M 640,704 l 16,0 0,16 -16,0 z M 656,704 l 16,0 0,16 -16,0 z M 672,704 l 16,0 0,16 -16,0 z M 688,704 l 16,0 0,16 -16,0 z M 704,704 l 16,0 0,16 -16,0 z M 736,704 l 16,0 0,16 -16,0 z M 768,704 l 16,0 0,16 -16,0 z M 0,720 l 16,0 0,16 -16,0 z M 32,720 l 16,0 0,16 -16,0 z M 48,720 l 16,0 0,16 -16,0 z M 64,720 l 16,0 0,16 -16,0 z M 96,720 l 16,0 0,16 -16,0 z M 128,720 l 16,0 0,16 -16,0 z M 160,720 l 16,0 0,16 -16,0 z M 176,720 l 16,0 0,16 -16,0 z M 256,720 l 16,0 0,16 -16,0 z M 320,720 l 16,0 0,16 -16,0 z M 336,720 l 16,0 0,16 -16,0 z M 368,720 l 16,0 0,16 -16,0 z M 384,720 l 16,0 0,16 -16,0 z M 464,720 l 16,0 0,16 -16,0 z M 512,720 l 16,0 0,16 -16,0 z M 560,720 l 16,0 0,16 -16,0 z M 592,720 l 16,0 0,16 -16,0 z M 640,720 l 16,0 0,16 -16,0 z M 704,720 l 16,0 0,16 -16,0 z M 736,720 l 16,0 0,16 -16,0 z M 752,720 l 16,0 0,16 -16,0 z M 768,720 l 16,0 0,16 -16,0 z M 0,736 l 16,0 0,16 -16,0 z M 32,736 l 16,0 0,16 -16,0 z M 48,736 l 16,0 0,16 -16,0 z M 64,736 l 16,0 0,16 -16,0 z M 96,736 l 16,0 0,16 -16,0 z M 128,736 l 16,0 0,16 -16,0 z M 144,736 l 16,0 0,16 -16,0 z M 160,736 l 16,0 0,16 -16,0 z M 176,736 l 16,0 0,16 -16,0 z M 288,736 l 16,0 0,16 -16,0 z M 320,736 l 16,0 0,16 -16,0 z M 416,736 l 16,0 0,16 -16,0 z M 432,736 l 16,0 0,16 -16,0 z M 448,736 l 16,0 0,16 -16,0 z M 528,736 l 16,0 0,16 -16,0 z M 544,736 l 16,0 0,16 -16,0 z M 560,736 l 16,0 0,16 -16,0 z M 592,736 l 16,0 0,16 -16,0 z M 608,736 l 16,0 0,16 -16,0 z M 624,736 l 16,0 0,16 -16,0 z M 656,736 l 16,0 0,16 -16,0 z M 672,736 l 16,0 0,16 -16,0 z M 720,736 l 16,0 0,16 -16,0 z M 736,736 l 16,0 0,16 -16,0 z M 752,736 l 16,0 0,16 -16,0 z M 768,736 l 16,0 0,16 -16,0 z M 0,752 l 16,0 0,16 -16,0 z M 96,752 l 16,0 0,16 -16,0 z M 160,752 l 16,0 0,16 -16,0 z M 176,752 l 16,0 0,16 -16,0 z M 208,752 l 16,0 0,16 -16,0 z M 224,752 l 16,0 0,16 -16,0 z M 240,752 l 16,0 0,16 -16,0 z M 256,752 l 16,0 0,16 -16,0 z M 288,752 l 16,0 0,16 -16,0 z M 320,752 l 16,0 0,16 -16,0 z M 336,752 l 16,0 0,16 -16,0 z M 352,752 l 16,0 0,16 -16,0 z M 384,752 l 16,0 0,16 -16,0 z M 416,752 l 16,0 0,16 -16,0 z M 432,752 l 16,0 0,16 -16,0 z M 448,752 l 16,0 0,16 -16,0 z M 464,752 l 16,0 0,16 -16,0 z M 512,752 l 16,0 0,16 -16,0 z M 544,752 l 16,0 0,16 -16,0 z M 560,752 l 16,0 0,16 -16,0 z M 592,752 l 16,0 0,16 -16,0 z M 608,752 l 16,0 0,16 -16,0 z M 624,752 l 16,0 0,16 -16,0 z M 640,752 l 16,0 0,16 -16,0 z M 656,752 l 16,0 0,16 -16,0 z M 672,752 l 16,0 0,16 -16,0 z M 704,752 l 16,0 0,16 -16,0 z M 768,752 l 16,0 0,16 -16,0 z M 0,768 l 16,0 0,16 -16,0 z M 16,768 l 16,0 0,16 -16,0 z M 32,768 l 16,0 0,16 -16,0 z M 48,768 l 16,0 0,16 -16,0 z M 64,768 l 16,0 0,16 -16,0 z M 80,768 l 16,0 0,16 -16,0 z M 96,768 l 16,0 0,16 -16,0 z M 144,768 l 16,0 0,16 -16,0 z M 160,768 l 16,0 0,16 -16,0 z M 176,768 l 16,0 0,16 -16,0 z M 208,768 l 16,0 0,16 -16,0 z M 240,768 l 16,0 0,16 -16,0 z M 304,768 l 16,0 0,16 -16,0 z M 320,768 l 16,0 0,16 -16,0 z M 352,768 l 16,0 0,16 -16,0 z M 368,768 l 16,0 0,16 -16,0 z M 384,768 l 16,0 0,16 -16,0 z M 400,768 l 16,0 0,16 -16,0 z M 416,768 l 16,0 0,16 -16,0 z M 432,768 l 16,0 0,16 -16,0 z M 448,768 l 16,0 0,16 -16,0 z M 480,768 l 16,0 0,16 -16,0 z M 496,768 l 16,0 0,16 -16,0 z M 544,768 l 16,0 0,16 -16,0 z M 560,768 l 16,0 0,16 -16,0 z M 576,768 l 16,0 0,16 -16,0 z M 592,768 l 16,0 0,16 -16,0 z M 608,768 l 16,0 0,16 -16,0 z M 640,768 l 16,0 0,16 -16,0 z M 720,768 l 16,0 0,16 -16,0 z M 736,768 l 16,0 0,16 -16,0 z M 752,768 l 16,0 0,16 -16,0 z M 768,768 l 16,0 0,16 -16,0 z " />
	</g>
</svg>
