<?xml version="1.0" encoding="UTF-8"?>
<svg xmlns="http://www.w3.org/2000/svg" viewBox="91 415 1078 371" role="img" aria-label="Safras &amp; Negócios">
  <title>Safras &amp; Negócios</title>
  <path fill="#2FA21C" fill-rule="evenodd" d="M 195.500 437.508 C 185.420 439.775, 175.016 443.780, 165.473 449.067 C 138.472 464.025, 119.553 489.830, 113.429 520.054 C 110.834 532.861, 111.859 556.642, 115.494 567.971 C 119.210 579.554, 122.953 587.174, 130.391 598.299 L 136.707 607.746 130.707 608.373 C 127.407 608.718, 121.848 609, 118.353 609 L 112 609 112 616.412 C 112 652.929, 140.519 691.443, 178.422 706.114 C 195.085 712.564, 217.187 715.084, 233.311 712.374 C 259.583 707.957, 281.091 696.153, 297.802 676.982 C 323.484 647.519, 330.146 605.174, 314.790 569 C 310.910 559.861, 303.024 547.142, 298.953 543.457 C 295.782 540.588, 296.478 538.933, 300.750 539.182 C 302.813 539.303, 308.663 539.311, 313.750 539.201 L 323 539 322.965 533.750 C 322.888 522.145, 318.749 506.336, 312.558 494 C 298.073 465.138, 268.839 442.865, 238.500 437.576 C 227.448 435.649, 203.933 435.612, 195.500 437.508 M 195.170 465.569 C 185.434 468.447, 182.909 469.666, 173.500 476.027 C 158.765 485.988, 147.416 500.740, 142.152 516.775 C 136.917 532.721, 137.585 551.970, 143.897 567.066 C 147.958 576.778, 158.249 590.552, 166.183 596.894 C 175.348 604.220, 191.084 611.976, 198.250 612.699 L 204 613.280 204 559.496 L 204 505.713 219.250 506.296 C 247.667 507.383, 268.061 514.938, 287.054 531.414 C 291.138 534.956, 294.678 537.655, 294.921 537.412 C 295.794 536.540, 294.849 525.389, 293.431 519.826 C 288.060 498.754, 271.772 479.377, 251.500 469.943 C 239.564 464.389, 232.553 462.991, 216.936 463.053 C 205.684 463.098, 202.146 463.507, 195.170 465.569 M 230.568 535.684 C 230.212 536.610, 229.985 561.104, 230.063 590.115 C 230.140 619.126, 229.906 643.343, 229.543 643.931 C 228.283 645.970, 211.011 645.140, 197.410 642.387 C 175.647 637.983, 160.881 630.640, 146.870 617.254 C 140.927 611.576, 139.094 610.311, 138.616 611.559 C 136.519 617.022, 140.324 633.974, 146.168 645.206 C 150.968 654.432, 162.556 667.375, 170.655 672.556 C 184.966 681.711, 194.625 684.775, 211.861 685.630 C 239.388 686.996, 256.446 680.798, 274.156 662.997 C 281.387 655.729, 283.557 652.750, 287.346 644.898 C 295.362 628.283, 297.587 613.283, 294.585 596.079 C 291.589 578.906, 285.706 567.709, 273 554.994 C 263.349 545.337, 254.997 540.058, 243.698 536.474 C 234.531 533.567, 231.451 533.381, 230.568 535.684"/>
  <path fill="#6E6351" fill-rule="evenodd" d="M 204 664.689 L 204 684.877 208.250 685.499 C 210.588 685.841, 216.325 685.981, 221 685.810 L 229.500 685.500 229.766 665 L 230.031 644.500 217.015 644.500 L 203.999 644.500 204 664.689 M 204 734.013 L 204 755 217 755 L 230 755 229.999 734.250 L 229.998 713.500 216.999 713.263 L 204 713.026 204 734.013"/>
  <path fill="#6E6351" fill-rule="evenodd" d="M 416.105 452.519 C 398.931 457.340, 389.859 468.263, 386.390 488.297 C 383.691 503.879, 385.748 517.807, 392.768 531.500 C 395.823 537.458, 399.513 541.627, 417.547 559.500 C 429.202 571.050, 439.905 582.536, 441.331 585.025 C 449.902 599.971, 448.096 619.329, 437.691 624.053 C 432.167 626.561, 428.377 626.483, 422.985 623.750 C 416.171 620.296, 414.591 616.674, 414.153 603.500 C 413.952 597.450, 413.348 591.959, 412.811 591.299 C 411.363 589.515, 386.376 589.842, 384.863 591.664 C 383.310 593.537, 384.683 613.426, 386.966 622.124 C 389.222 630.717, 392.547 636.367, 398.774 642.192 C 405.029 648.042, 410.114 650.631, 419.043 652.509 C 437.858 656.467, 455.422 651.965, 465.750 640.538 C 473.780 631.652, 477.325 620.402, 477.262 604 C 477.202 587.991, 474.174 577.728, 465.754 565 C 464.117 562.525, 453.687 551.500, 442.577 540.500 C 418.158 516.325, 416.569 513.824, 416.557 499.555 C 416.548 489.640, 417.866 485.824, 422.581 482.115 C 427.934 477.904, 436.668 478.167, 442.057 482.701 C 446.324 486.292, 447.184 488.914, 447.890 500.500 L 448.500 510.500 462.500 510.500 L 476.500 510.500 476.787 501.865 C 477.541 479.204, 468.538 461.714, 452.289 454.275 C 447.279 451.981, 445.026 451.618, 434.037 451.331 C 425.021 451.096, 419.984 451.430, 416.105 452.519 M 1085.966 452.821 C 1072.504 456.337, 1062.548 466.123, 1057.808 480.500 C 1054.534 490.430, 1054.491 509.314, 1057.718 519.500 C 1061.853 532.550, 1065.869 537.893, 1088.535 560.500 C 1106.760 578.677, 1110.055 582.441, 1113.045 588.500 C 1116.293 595.081, 1116.500 596.103, 1116.500 605.578 C 1116.500 615.143, 1116.353 615.848, 1113.618 619.434 C 1109.932 624.267, 1104.949 626.402, 1099.197 625.613 C 1088.522 624.150, 1084.900 618.683, 1084.216 603 C 1083.964 597.225, 1083.308 591.939, 1082.759 591.252 C 1082.021 590.332, 1078.318 590.108, 1068.630 590.399 C 1061.408 590.616, 1055.330 590.840, 1055.122 590.897 C 1054.914 590.954, 1054.975 597.188, 1055.257 604.750 C 1055.801 619.344, 1057.371 625.839, 1062.449 634.504 C 1071.535 650.007, 1092.903 657.270, 1115.406 652.502 C 1130.924 649.215, 1139.372 641.437, 1145.229 625.048 C 1148.067 617.109, 1148.793 597.001, 1146.582 587.600 C 1142.936 572.096, 1134.274 559.568, 1116.236 543.708 C 1101.492 530.743, 1094.045 522.469, 1090.066 514.629 C 1087.144 508.874, 1086.777 507.217, 1086.673 499.337 C 1086.587 492.750, 1087.005 489.587, 1088.315 486.914 C 1090.564 482.325, 1096.373 479, 1102.136 479.002 C 1112.474 479.005, 1118 485.848, 1118 498.647 C 1118 502.619, 1118.439 507.024, 1118.975 508.435 L 1119.950 511 1132.853 511 C 1143.221 511, 1146.005 510.699, 1147.026 509.468 C 1147.965 508.337, 1148.140 505.262, 1147.695 497.718 C 1146.204 472.433, 1136.009 457.550, 1116.650 452.395 C 1109.571 450.510, 1093.989 450.727, 1085.966 452.821 M 544.276 454.250 C 543.742 454.938, 541.216 468.550, 538.660 484.500 C 530.014 538.475, 524.127 574.370, 517.895 611.119 C 514.480 631.260, 511.967 648.473, 512.312 649.369 C 512.843 650.756, 514.778 650.998, 525.219 650.985 C 531.973 650.976, 538.011 650.639, 538.635 650.235 C 539.260 649.831, 540.949 642.141, 542.390 633.146 C 543.831 624.151, 545.260 616.389, 545.564 615.896 C 546.142 614.961, 584 614.602, 584 615.531 C 584 618.804, 589.456 648.817, 590.221 649.750 C 591.498 651.309, 618.548 651.540, 619.500 650 C 620.080 649.062, 616.953 630.027, 606.441 570.500 C 604.013 556.750, 598.553 525.302, 594.307 500.616 C 589.625 473.390, 586.051 455.194, 585.223 454.366 C 583.332 452.475, 545.735 452.368, 544.276 454.250 M 659.465 454.239 C 659.201 454.932, 659.100 499.375, 659.242 553 L 659.500 650.500 672.500 650.788 C 679.650 650.947, 686.513 650.826, 687.750 650.519 L 690 649.962 690 607.981 C 690 584.891, 690.112 565.911, 690.250 565.802 C 690.388 565.694, 699.725 565.356, 711 565.052 L 731.500 564.500 731.791 553.500 C 732.245 536.342, 734.526 538, 710.465 538 L 689.969 538 690.234 509.750 L 690.500 481.500 715.500 481 L 740.500 480.500 740.500 467 L 740.500 453.500 700.223 453.239 C 668.536 453.033, 659.843 453.246, 659.465 454.239 M 781.491 454.172 C 781.212 454.902, 781.100 499.375, 781.242 553 L 781.500 650.500 795.421 650.779 C 803.077 650.933, 809.744 650.656, 810.236 650.164 C 810.735 649.665, 811.088 631.817, 811.035 609.782 C 810.952 575.304, 811.136 570.132, 812.485 569.012 C 813.603 568.085, 816.635 567.865, 823.427 568.221 C 834.198 568.784, 838.231 570.531, 841.465 576.035 C 843.351 579.246, 843.550 581.809, 844.177 611 C 844.840 641.878, 845.265 647.231, 847.257 649.750 C 848.718 651.599, 876.862 651.522, 877.574 649.668 C 877.855 648.935, 877.560 646.347, 876.919 643.918 C 876.240 641.348, 875.460 626.534, 875.053 608.500 C 874.279 574.208, 873.721 570.744, 867.692 562.794 C 865.901 560.432, 862.321 557.150, 859.736 555.500 C 857.152 553.850, 855.029 552.275, 855.020 552 C 855.011 551.725, 857.078 550.190, 859.613 548.588 C 865.661 544.767, 869.551 539.230, 872.279 530.560 C 874.248 524.301, 874.500 521.345, 874.500 504.500 C 874.500 488.470, 874.204 484.640, 872.609 480 C 868.274 467.394, 860.781 460.008, 848.042 455.782 C 842.050 453.794, 839 453.580, 811.749 453.228 C 787.664 452.917, 781.901 453.097, 781.491 454.172 M 948.262 454.250 C 947.721 454.938, 945.660 465.175, 943.682 477 C 941.703 488.825, 934.427 532.228, 927.512 573.450 C 920.597 614.673, 915.164 648.985, 915.438 649.700 C 915.812 650.674, 919.194 651, 928.933 651 C 944.169 651, 943.158 651.785, 945.017 638.500 C 945.710 633.550, 946.806 626.350, 947.454 622.500 L 948.632 615.500 967.839 615.228 C 982.705 615.018, 987.130 615.244, 987.417 616.228 C 987.621 616.928, 988.800 624.475, 990.037 633 C 991.273 641.525, 992.726 649.063, 993.265 649.750 C 993.965 650.643, 998.216 651, 1008.154 651 C 1019.582 651, 1022.165 650.733, 1022.637 649.503 C 1023.234 647.948, 1019.724 626.734, 1010.396 575.500 C 1007.392 559, 1002.673 532.225, 999.910 516 C 992.124 470.277, 989.065 454.660, 987.729 453.812 C 985.554 452.430, 949.377 452.831, 948.262 454.250 M 811.657 483.147 C 810.848 486.168, 810.803 536.322, 811.607 538.418 C 812.107 539.721, 814.057 540, 822.657 540 C 835.045 540, 837.986 538.847, 841.207 532.729 C 843.205 528.935, 843.464 526.802, 843.724 512 C 843.964 498.279, 843.717 494.672, 842.257 490.581 C 839.491 482.836, 836.998 481.578, 823.577 481.152 C 812.433 480.798, 812.279 480.824, 811.657 483.147 M 563 490.415 C 563 491.772, 561.939 499.141, 553.061 559.423 C 550.880 574.230, 549.326 586.718, 549.607 587.173 C 549.888 587.628, 556.616 588, 564.559 588 C 578.869 588, 579 587.980, 578.997 585.750 C 578.996 584.513, 577.406 573.375, 575.465 561 C 573.523 548.625, 570.823 530.850, 569.464 521.500 C 565.168 491.934, 564.658 489, 563.820 489 C 563.369 489, 563 489.637, 563 490.415 M 966.664 491 C 966.355 492.375, 964.957 502.050, 963.557 512.500 C 962.158 522.950, 959.422 542.075, 957.478 555 C 955.534 567.925, 953.668 580.638, 953.332 583.250 L 952.721 588 967.302 588 C 975.321 588, 982.133 587.594, 982.440 587.098 C 982.980 586.223, 981.206 573.957, 975.120 536.500 C 973.512 526.600, 971.436 512.650, 970.507 505.500 C 969.578 498.350, 968.460 491.600, 968.023 490.500 C 967.278 488.629, 967.190 488.661, 966.664 491"/>
  <path fill="#2FA21C" fill-rule="evenodd" d="M 807.250 677.286 C 802.469 684.305, 802.250 685, 804.821 685 C 806.355 685, 817 673.233, 817 671.537 C 817 671.241, 815.763 671.011, 814.250 671.024 C 812.009 671.043, 810.713 672.202, 807.250 677.286 M 959.250 672.768 C 957.311 673.088, 957 673.752, 957 677.570 C 957 681.826, 957.118 682, 960 682 C 962.883 682, 963 681.827, 963 677.559 C 963 672.711, 962.611 672.214, 959.250 672.768 M 409.942 674.892 C 402.667 677.258, 400 680.977, 400 688.755 C 400 692.394, 400.726 694.754, 402.902 698.185 C 404.498 700.702, 406.298 703.066, 406.902 703.440 C 408.687 704.543, 408.191 705.459, 404.750 707.424 C 400.308 709.959, 395.137 714.912, 393.332 718.361 C 391.324 722.195, 391.344 730.831, 393.369 734.747 C 396.892 741.559, 406.304 745.748, 415.381 744.544 C 420.757 743.831, 424.681 742.126, 429.837 738.264 L 433.175 735.765 437.135 739.632 C 439.851 742.285, 442.023 743.520, 444.048 743.564 C 445.671 743.599, 447 743.213, 447 742.704 C 447 742.196, 444.750 739.319, 442 736.310 C 439.250 733.301, 437 730.403, 437 729.870 C 437 729.337, 437.650 727.643, 438.445 726.107 C 439.239 724.570, 440.202 720.956, 440.584 718.077 L 441.279 712.840 438.412 713.170 C 435.875 713.462, 435.458 714.010, 434.794 717.928 C 434.381 720.364, 433.638 722.762, 433.143 723.257 C 432.319 724.081, 418 708.716, 418 707.009 C 418 706.626, 420.303 704.371, 423.117 701.998 C 428.528 697.436, 431 693.046, 431 688 C 431 683.165, 428.466 678.292, 425.025 676.513 C 421.275 674.573, 413.493 673.737, 409.942 674.892 M 409.048 681.798 C 404.663 686.183, 404.823 691.171, 409.546 697.356 C 411.496 699.910, 413.440 702, 413.866 702 C 414.292 702, 416.488 700.418, 418.748 698.484 C 427.717 690.806, 426.331 680.659, 416.126 679.290 C 412.602 678.817, 411.714 679.132, 409.048 681.798 M 542.510 692.436 C 539.228 693.341, 536.635 694.872, 534.937 696.906 C 533.517 698.608, 532.050 700, 531.677 700 C 531.305 700, 531 698.395, 531 696.434 C 531 693.147, 530.788 692.892, 528.298 693.184 L 525.597 693.500 525.753 718 L 525.910 742.500 528.355 742.807 L 530.800 743.114 531.150 725.807 C 531.541 706.471, 532.356 703.699, 538.952 699.253 C 542.699 696.728, 550.149 696.199, 554.439 698.154 C 559.876 700.631, 560.440 702.859, 560.992 724 L 561.500 743.500 564 743.500 L 566.500 743.500 566.500 723 C 566.500 704.183, 566.333 702.216, 564.465 699.035 C 560.621 692.493, 551.854 689.858, 542.510 692.436 M 625.564 692.069 C 615.387 694.595, 609.698 703.836, 609.633 717.948 C 609.566 732.423, 615.211 741.269, 626.294 744.055 C 637.869 746.964, 650.162 741.173, 652.542 731.689 C 653.157 729.237, 652.965 729.002, 650.358 729.023 C 648.145 729.040, 647.142 729.772, 645.911 732.269 C 643.736 736.681, 639.210 739.105, 633.056 739.153 C 623.392 739.228, 617.790 734.041, 616.373 723.707 L 615.728 719 635.364 719 L 655 719 655 715.659 C 655 707.199, 650.029 697.509, 643.931 694.081 C 639.624 691.661, 631.012 690.717, 625.564 692.069 M 710.456 692.088 C 705.421 693.269, 699.792 697.811, 697.575 702.483 C 693.107 711.899, 693.758 726.074, 699.043 734.407 C 705.504 744.595, 720.427 746.832, 729.395 738.958 C 731.248 737.331, 733.042 736, 733.382 736 C 734.393 736, 734.074 744.190, 732.895 748.500 C 730.897 755.808, 725.735 759.323, 717 759.323 C 710.237 759.323, 705.159 756.883, 703.661 752.912 C 702.761 750.529, 701.978 750, 699.351 750 C 696.208 750, 696.159 750.069, 697.051 753.250 C 698.484 758.360, 703.828 762.615, 710.570 764.014 C 721.996 766.387, 732.188 762.939, 736.764 755.154 L 739.500 750.500 739.819 721.750 L 740.137 693 737.069 693 C 734.197 693, 734 693.238, 734 696.696 L 734 700.392 730.750 697.316 C 728.962 695.624, 726.600 693.780, 725.500 693.219 C 722.353 691.611, 714.883 691.050, 710.456 692.088 M 798.667 692.379 C 792.073 694.226, 789.029 696.700, 785.500 703.078 C 782.786 707.984, 782.500 709.364, 782.500 717.571 C 782.500 725.689, 782.817 727.260, 785.515 732.537 C 787.815 737.035, 789.684 739.147, 793.395 741.441 C 797.682 744.092, 799.162 744.449, 805.879 744.457 C 811.880 744.464, 814.406 743.986, 817.763 742.206 C 822.860 739.504, 827.242 733.781, 828.988 727.543 C 830.640 721.643, 829.870 709.581, 827.549 705 C 825.353 700.665, 820.371 695.286, 816.836 693.434 C 812.838 691.339, 804.175 690.836, 798.667 692.379 M 885.721 692.361 C 879.928 693.991, 876.655 696.891, 873.151 703.500 C 870.818 707.900, 870.500 709.644, 870.500 718.027 C 870.500 726.261, 870.845 728.230, 873.042 732.527 C 880.761 747.628, 903.838 749.384, 911.718 735.470 C 914.852 729.937, 914.697 728, 911.121 728 C 908.887 728, 907.973 728.650, 907.041 730.901 C 904.811 736.285, 901.553 738.371, 894.718 738.792 C 889.462 739.116, 887.967 738.813, 885.054 736.834 C 879.159 732.829, 877.500 728.803, 877.500 718.500 C 877.500 703.723, 882.579 697, 893.744 697 C 900.303 697, 904.358 699.126, 906.531 703.706 C 907.778 706.335, 908.690 707, 911.047 707 C 914.295 707, 914.508 706.471, 912.933 702.315 C 911.608 698.816, 908.348 695.251, 904.775 693.392 C 900.781 691.314, 891.271 690.799, 885.721 692.361 M 1022.248 692.880 C 1015.769 695.118, 1013.512 697.103, 1010.176 703.500 C 1007.942 707.785, 1007.564 709.787, 1007.535 717.500 C 1007.504 725.399, 1007.847 727.206, 1010.334 732.271 C 1015.157 742.093, 1025.221 746.612, 1036.602 744.065 C 1050.549 740.943, 1058.259 724.722, 1053.529 708.451 C 1051.126 700.184, 1044.650 693.710, 1037.201 692.126 C 1030.211 690.641, 1028.476 690.728, 1022.248 692.880 M 1107.733 692.027 C 1102.703 693.294, 1099.208 695.697, 1097.449 699.099 C 1094.572 704.662, 1096.344 712.030, 1101.347 715.307 C 1102.693 716.190, 1107.969 718.086, 1113.071 719.520 C 1127.336 723.531, 1129 724.729, 1129 730.993 C 1129 732.889, 1128.041 734.629, 1126.093 736.268 C 1118.747 742.449, 1103.583 739.443, 1101.566 731.405 C 1101.097 729.538, 1100.295 729, 1097.981 729 C 1094.495 729, 1094.191 730.493, 1096.630 735.633 C 1101.431 745.750, 1122.434 748.115, 1131.505 739.560 C 1134.751 736.499, 1135 735.832, 1135 730.209 C 1135 720.180, 1132.236 718.082, 1112.381 713.039 C 1104.773 711.107, 1101.566 706.900, 1103.621 701.545 C 1104.674 698.801, 1109.590 697, 1116.027 697 C 1121.465 697, 1122.482 697.328, 1125.077 699.923 C 1126.685 701.531, 1128 703.556, 1128 704.423 C 1128 705.523, 1128.947 706, 1131.131 706 C 1134.171 706, 1134.245 705.895, 1133.674 702.376 C 1132.585 695.667, 1127.435 692.155, 1117.722 691.499 C 1114.300 691.268, 1109.805 691.505, 1107.733 692.027 M 957.233 718.103 L 957.500 743.335 959.765 743.502 C 961.011 743.593, 962.443 743.171, 962.946 742.565 C 963.456 741.950, 963.782 730.829, 963.681 717.481 L 963.500 693.500 960.233 693.185 L 956.965 692.871 957.233 718.103 M 802.500 697.021 C 797.938 697.982, 795.355 699.668, 792.291 703.686 C 789.663 707.130, 789.500 707.933, 789.500 717.422 C 789.500 728.858, 790.994 732.731, 796.952 736.747 C 801.617 739.890, 810.359 739.891, 815.102 736.749 C 825.562 729.818, 826.026 707.063, 815.858 699.687 C 812.666 697.372, 806.591 696.159, 802.500 697.021 M 1027.123 697.042 C 1023.278 697.904, 1019.461 700.502, 1016.799 704.067 C 1014.223 707.517, 1012.862 716.999, 1014.046 723.243 C 1016.062 733.872, 1021.579 739, 1031 739 C 1041.349 739, 1047.123 732.429, 1047.838 719.841 C 1048.738 703.967, 1039.851 694.186, 1027.123 697.042 M 623.055 699.607 C 619.706 702.425, 616.063 708.974, 616.022 712.250 C 616.002 713.845, 617.420 714, 632 714 C 646.574 714, 648 713.844, 647.994 712.250 C 647.982 708.265, 645.825 703.206, 642.973 700.474 C 640.351 697.962, 639.002 697.509, 633.164 697.179 C 626.926 696.827, 626.133 697.017, 623.055 699.607 M 710.418 697.969 C 701.907 701.412, 698.325 718.875, 703.892 729.788 C 706.883 735.651, 710.680 738.001, 717.154 737.996 C 724.433 737.991, 728.433 735.416, 731.545 728.732 C 736.477 718.137, 733.955 704.477, 726.102 699.258 C 722.537 696.889, 714.684 696.243, 710.418 697.969 M 406.599 712.726 C 398.377 719.056, 396 726.208, 399.960 732.701 C 402.489 736.850, 406.764 739, 412.482 739 C 418.205 739, 422.665 737.135, 426.371 733.192 L 429.242 730.138 423.207 722.819 C 419.888 718.794, 415.896 714.027, 414.336 712.226 L 411.500 708.952 406.599 712.726"/>
</svg>
