<svg xmlns="http://www.w3.org/2000/svg" width="224" height="224" viewBox="0 0 224 224" version="1.1">
	<path d="M 97.500 15.896 C 75.705 21.340, 59.598 36.259, 52.416 57.655 C 46.329 75.787, 49.400 95.958, 60.656 111.790 C 62.495 114.377, 64 116.813, 64 117.203 C 64 117.593, 60.737 118.045, 56.750 118.206 L 49.500 118.500 49.787 123 C 50.287 130.835, 52.085 137.250, 56.215 145.923 C 63.803 161.863, 81.390 175.812, 98.025 179.085 L 104 180.260 104 194.630 C 104 202.534, 104.338 209.047, 104.750 209.105 C 107.890 209.545, 118.241 209.469, 118.998 209.001 C 119.517 208.681, 120.067 202.169, 120.220 194.531 L 120.500 180.644 127.797 178.852 C 149.805 173.446, 167.904 155.496, 173.485 133.540 C 175.269 126.521, 175.464 112.293, 173.879 104.799 C 172.416 97.885, 167.947 88.058, 163.526 82.036 C 161.587 79.394, 160 76.955, 160 76.616 C 160 76.277, 163.600 76, 168 76 C 175.635 76, 175.999 75.897, 175.983 73.750 C 175.939 68.112, 172.674 56.763, 168.862 49 C 156.161 23.132, 125.490 8.904, 97.500 15.896 M 101.698 31.096 C 89.701 33.919, 76.750 44.238, 70.661 55.826 C 61.477 73.303, 64.656 93.830, 78.722 107.872 C 84.492 113.633, 94.384 119.380, 100.608 120.589 C 103.273 121.107, 103.806 120.858, 104.344 118.847 C 104.690 117.556, 104.979 102.888, 104.986 86.250 L 105 56 111.542 56 C 126.977 56, 142.857 61.772, 153.487 71.246 L 159.269 76.400 158.838 70.432 C 157.589 53.171, 140.630 34.969, 122.201 31.110 C 116.048 29.821, 107.139 29.815, 101.698 31.096 M 120.643 84.144 C 120.278 90.390, 119.994 110.961, 120.013 129.857 L 120.046 164.214 123.773 163.516 C 133.905 161.620, 147.955 151.011, 153.270 141.244 C 160.808 127.396, 160.787 109.668, 153.217 95.601 C 147.712 85.372, 134.224 74.884, 124.555 73.315 L 121.306 72.788 120.643 84.144 M 65.626 119.797 C 64.420 121.747, 67.121 132.825, 70.449 139.575 C 76.109 151.057, 88.960 161.247, 100.750 163.601 L 104 164.250 104 151.734 L 104 139.217 97.048 137.647 C 87.540 135.500, 78.718 130.827, 71.907 124.329 C 68.764 121.332, 65.937 119.292, 65.626 119.797" stroke="none" fill="#1f6b3a" fill-rule="evenodd"/>
</svg>